<?xml version="1.0" encoding="utf-8"?>
<!DOCTYPE score-partwise  PUBLIC "-//Recordare//DTD MusicXML 4.0 Partwise//EN" "http://www.musicxml.org/dtds/partwise.dtd">
<score-partwise version="4.0">
  <work>
    <work-title>Acompañamiento Generado</work-title>
  </work>
  <movement-title>Acompañamiento Generado</movement-title>
  <identification>
    <creator type="composer">Music21</creator>
    <encoding>
      <encoding-date>2026-03-16</encoding-date>
      <software>music21 v.9.9.1</software>
    </encoding>
  </identification>
  <defaults>
    <scaling>
      <millimeters>7</millimeters>
      <tenths>40</tenths>
    </scaling>
  </defaults>
  <part-list>
    <score-part id="P898d71883ee84a7220727401fde1b5a4">
      <part-name>Melodía</part-name>
      <part-abbreviation>Gtr</part-abbreviation>
      <score-instrument id="I1eeaa2c667f598cceeba1e093fe0edc6">
        <instrument-name>Guitar</instrument-name>
        <instrument-abbreviation>Gtr</instrument-abbreviation>
      </score-instrument>
      <midi-instrument id="I1eeaa2c667f598cceeba1e093fe0edc6">
        <midi-channel>1</midi-channel>
        <midi-program>25</midi-program>
      </midi-instrument>
    </score-part>
    <score-part id="Pc1a1ed9150dfa55c9cd2c9aee3114cb4">
      <part-name>Bass (FUNK)</part-name>
      <part-abbreviation>Elec b</part-abbreviation>
      <score-instrument id="I601b5a0c88934eb619df62f799068e32">
        <instrument-name>Electric Bass</instrument-name>
        <instrument-abbreviation>Elec b</instrument-abbreviation>
      </score-instrument>
      <midi-instrument id="I601b5a0c88934eb619df62f799068e32">
        <midi-channel>2</midi-channel>
        <midi-program>34</midi-program>
      </midi-instrument>
    </score-part>
  </part-list>
  <!--=========================== Part 1 ===========================-->
  <part id="P898d71883ee84a7220727401fde1b5a4">
    <!--========================= Measure 1 ==========================-->
    <measure implicit="no" number="1">
      <attributes>
        <divisions>10080</divisions>
        <key>
          <fifths>1</fifths>
          <mode>major</mode>
        </key>
        <time>
          <beats>4</beats>
          <beat-type>4</beat-type>
        </time>
      </attributes>
      <direction>
        <direction-type>
          <metronome parentheses="no">
            <beat-unit>quarter</beat-unit>
            <per-minute>200</per-minute>
          </metronome>
        </direction-type>
        <sound tempo="200" />
      </direction>
      <note print-object="no" print-spacing="yes">
        <rest measure="yes" />
        <duration>40320</duration>
      </note>
    </measure>
    <!--========================= Measure 2 ==========================-->
    <measure implicit="no" number="2">
      <note print-object="no" print-spacing="yes">
        <rest measure="yes" />
        <duration>40320</duration>
      </note>
    </measure>
    <!--========================= Measure 3 ==========================-->
    <measure implicit="no" number="3">
      <note print-object="no" print-spacing="yes">
        <rest measure="yes" />
        <duration>40320</duration>
      </note>
    </measure>
    <!--========================= Measure 4 ==========================-->
    <measure implicit="no" number="4">
      <note print-object="no" print-spacing="yes">
        <rest measure="yes" />
        <duration>40320</duration>
      </note>
    </measure>
    <!--========================= Measure 5 ==========================-->
    <measure implicit="no" number="5">
      <note print-object="no" print-spacing="yes">
        <rest measure="yes" />
        <duration>40320</duration>
      </note>
    </measure>
    <!--========================= Measure 6 ==========================-->
    <measure implicit="no" number="6">
      <note print-object="no" print-spacing="yes">
        <rest measure="yes" />
        <duration>40320</duration>
      </note>
    </measure>
    <!--========================= Measure 7 ==========================-->
    <measure implicit="no" number="7">
      <note print-object="no" print-spacing="yes">
        <rest measure="yes" />
        <duration>40320</duration>
      </note>
    </measure>
    <!--========================= Measure 8 ==========================-->
    <measure implicit="no" number="8">
      <note print-object="no" print-spacing="yes">
        <rest measure="yes" />
        <duration>40320</duration>
      </note>
    </measure>
    <!--========================= Measure 9 ==========================-->
    <measure implicit="no" number="9">
      <note print-object="no" print-spacing="yes">
        <rest measure="yes" />
        <duration>40320</duration>
      </note>
    </measure>
    <!--========================= Measure 10 =========================-->
    <measure implicit="no" number="10">
      <note print-object="no" print-spacing="yes">
        <rest measure="yes" />
        <duration>40320</duration>
      </note>
    </measure>
    <!--========================= Measure 11 =========================-->
    <measure implicit="no" number="11">
      <note print-object="no" print-spacing="yes">
        <rest measure="yes" />
        <duration>40320</duration>
      </note>
    </measure>
    <!--========================= Measure 12 =========================-->
    <measure implicit="no" number="12">
      <note print-object="no" print-spacing="yes">
        <rest measure="yes" />
        <duration>40320</duration>
      </note>
    </measure>
    <!--========================= Measure 13 =========================-->
    <measure implicit="no" number="13">
      <note print-object="no" print-spacing="yes">
        <rest measure="yes" />
        <duration>40320</duration>
      </note>
    </measure>
    <!--========================= Measure 14 =========================-->
    <measure implicit="no" number="14">
      <note print-object="no" print-spacing="yes">
        <rest measure="yes" />
        <duration>40320</duration>
      </note>
    </measure>
    <!--========================= Measure 15 =========================-->
    <measure implicit="no" number="15">
      <note print-object="no" print-spacing="yes">
        <rest measure="yes" />
        <duration>40320</duration>
      </note>
    </measure>
    <!--========================= Measure 16 =========================-->
    <measure implicit="no" number="16">
      <note print-object="no" print-spacing="yes">
        <rest measure="yes" />
        <duration>40320</duration>
      </note>
    </measure>
    <!--========================= Measure 17 =========================-->
    <measure implicit="no" number="17">
      <note print-object="no" print-spacing="yes">
        <rest measure="yes" />
        <duration>40320</duration>
      </note>
    </measure>
    <!--========================= Measure 18 =========================-->
    <measure implicit="no" number="18">
      <note print-object="no" print-spacing="yes">
        <rest measure="yes" />
        <duration>40320</duration>
      </note>
    </measure>
    <!--========================= Measure 19 =========================-->
    <measure implicit="no" number="19">
      <note print-object="no" print-spacing="yes">
        <rest measure="yes" />
        <duration>40320</duration>
      </note>
    </measure>
    <!--========================= Measure 20 =========================-->
    <measure implicit="no" number="20">
      <note print-object="no" print-spacing="yes">
        <rest measure="yes" />
        <duration>40320</duration>
      </note>
    </measure>
    <!--========================= Measure 21 =========================-->
    <measure implicit="no" number="21">
      <harmony>
        <root>
          <root-step>D</root-step>
          <root-alter>1</root-alter>
        </root>
        <kind>major-seventh</kind>
      </harmony>
      <note>
        <rest />
        <duration>10080</duration>
        <type>quarter</type>
      </note>
      <note>
        <rest />
        <duration>2520</duration>
        <type>16th</type>
      </note>
      <note>
        <rest />
        <duration>630</duration>
        <type>64th</type>
      </note>
      <direction>
        <direction-type>
          <dynamics default-x="-36" default-y="-80">
            <f />
          </dynamics>
        </direction-type>
        <sound dynamics="88" />
      </direction>
      <direction>
        <direction-type>
          <dynamics default-x="-36" default-y="-80">
            <mf />
          </dynamics>
        </direction-type>
        <sound dynamics="69" />
      </direction>
      <direction>
        <direction-type>
          <dynamics default-x="-36" default-y="-80">
            <ff />
          </dynamics>
        </direction-type>
        <sound dynamics="107" />
      </direction>
      <direction>
        <direction-type>
          <dynamics default-x="-36" default-y="-80">
            <f />
          </dynamics>
        </direction-type>
        <sound dynamics="88" />
      </direction>
      <note dynamics="106.67">
        <pitch>
          <step>D</step>
          <alter>0</alter>
          <octave>5</octave>
        </pitch>
        <duration>2520</duration>
        <type>16th</type>
        <accidental>natural</accidental>
      </note>
      <note dynamics="88.89">
        <pitch>
          <step>G</step>
          <alter>0</alter>
          <octave>5</octave>
        </pitch>
        <duration>5040</duration>
        <type>eighth</type>
      </note>
      <note dynamics="124.44">
        <pitch>
          <step>E</step>
          <alter>-1</alter>
          <octave>5</octave>
        </pitch>
        <duration>5040</duration>
        <type>eighth</type>
        <accidental>flat</accidental>
      </note>
      <note dynamics="106.67">
        <pitch>
          <step>B</step>
          <alter>-1</alter>
          <octave>4</octave>
        </pitch>
        <duration>5040</duration>
        <type>eighth</type>
        <accidental>flat</accidental>
      </note>
      <direction>
        <direction-type>
          <dynamics default-x="-36" default-y="-80">
            <mf />
          </dynamics>
        </direction-type>
        <offset sound="yes">-12600</offset>
        <sound dynamics="69" />
      </direction>
      <direction>
        <direction-type>
          <dynamics default-x="-36" default-y="-80">
            <f />
          </dynamics>
        </direction-type>
        <offset sound="yes">-12600</offset>
        <sound dynamics="88" />
      </direction>
      <direction>
        <direction-type>
          <dynamics default-x="-36" default-y="-80">
            <mf />
          </dynamics>
        </direction-type>
        <offset sound="yes">-12600</offset>
        <sound dynamics="69" />
      </direction>
      <note dynamics="88.89">
        <pitch>
          <step>D</step>
          <alter>0</alter>
          <octave>5</octave>
        </pitch>
        <duration>2520</duration>
        <type>16th</type>
      </note>
      <note dynamics="88.89">
        <pitch>
          <step>E</step>
          <alter>-1</alter>
          <octave>5</octave>
        </pitch>
        <duration>7560</duration>
        <type>eighth</type>
        <dot />
        <accidental>flat</accidental>
      </note>
      <note dynamics="106.67">
        <pitch>
          <step>B</step>
          <alter>-1</alter>
          <octave>4</octave>
        </pitch>
        <duration>7560</duration>
        <type>eighth</type>
        <dot />
        <accidental>flat</accidental>
      </note>
      <note dynamics="88.89">
        <pitch>
          <step>G</step>
          <alter>0</alter>
          <octave>5</octave>
        </pitch>
        <duration>7560</duration>
        <type>eighth</type>
        <dot />
      </note>
      <direction>
        <direction-type>
          <dynamics default-x="-36" default-y="-80">
            <mp />
          </dynamics>
        </direction-type>
        <offset sound="yes">-33390</offset>
        <sound dynamics="57" />
      </direction>
      <note dynamics="71.11">
        <pitch>
          <step>G</step>
          <alter>0</alter>
          <octave>5</octave>
        </pitch>
        <duration>10080</duration>
        <type>quarter</type>
        <accidental>natural</accidental>
      </note>
      <direction>
        <direction-type>
          <dynamics default-x="-36" default-y="-80">
            <mf />
          </dynamics>
        </direction-type>
        <offset sound="yes">-42840</offset>
        <sound dynamics="69" />
      </direction>
      <direction>
        <direction-type>
          <dynamics default-x="-36" default-y="-80">
            <mp />
          </dynamics>
        </direction-type>
        <offset sound="yes">-42840</offset>
        <sound dynamics="57" />
      </direction>
      <note dynamics="71.11">
        <pitch>
          <step>E</step>
          <alter>-1</alter>
          <octave>5</octave>
        </pitch>
        <duration>7560</duration>
        <type>eighth</type>
        <dot />
        <accidental>flat</accidental>
      </note>
      <note dynamics="88.89">
        <pitch>
          <step>D</step>
          <alter>0</alter>
          <octave>5</octave>
        </pitch>
        <duration>7560</duration>
        <type>eighth</type>
        <dot />
      </note>
      <note dynamics="71.11">
        <pitch>
          <step>B</step>
          <alter>-1</alter>
          <octave>4</octave>
        </pitch>
        <duration>15120</duration>
        <type>quarter</type>
        <dot />
        <accidental>flat</accidental>
      </note>
      <direction>
        <direction-type>
          <dynamics default-x="-36" default-y="-80">
            <mf />
          </dynamics>
        </direction-type>
        <offset sound="yes">-67410</offset>
        <sound dynamics="69" />
      </direction>
      <direction>
        <direction-type>
          <dynamics default-x="-36" default-y="-80">
            <f />
          </dynamics>
        </direction-type>
        <offset sound="yes">-67410</offset>
        <sound dynamics="88" />
      </direction>
      <direction>
        <direction-type>
          <dynamics default-x="-36" default-y="-80">
            <mf />
          </dynamics>
        </direction-type>
        <offset sound="yes">-67410</offset>
        <sound dynamics="69" />
      </direction>
      <note dynamics="71.11">
        <pitch>
          <step>B</step>
          <alter>-1</alter>
          <octave>4</octave>
        </pitch>
        <duration>5040</duration>
        <type>eighth</type>
      </note>
      <note dynamics="88.89">
        <pitch>
          <step>G</step>
          <alter>0</alter>
          <octave>5</octave>
        </pitch>
        <duration>7560</duration>
        <type>eighth</type>
        <dot />
      </note>
      <note dynamics="106.67">
        <pitch>
          <step>D</step>
          <alter>0</alter>
          <octave>5</octave>
        </pitch>
        <duration>7560</duration>
        <type>eighth</type>
        <dot />
      </note>
      <note dynamics="88.89">
        <pitch>
          <step>E</step>
          <alter>-1</alter>
          <octave>5</octave>
        </pitch>
        <duration>7560</duration>
        <type>eighth</type>
        <dot />
        <accidental>flat</accidental>
      </note>
      <direction>
        <direction-type>
          <dynamics default-x="-36" default-y="-80">
            <ff />
          </dynamics>
        </direction-type>
        <offset sound="yes">-90090</offset>
        <sound dynamics="107" />
      </direction>
      <note dynamics="124.44">
        <pitch>
          <step>D</step>
          <alter>0</alter>
          <octave>5</octave>
        </pitch>
        <duration>5040</duration>
        <tie type="start" />
        <type>eighth</type>
        <notations>
          <tied type="start" />
        </notations>
      </note>
      <note dynamics="124.44">
        <pitch>
          <step>B</step>
          <alter>-1</alter>
          <octave>4</octave>
        </pitch>
        <duration>5040</duration>
        <tie type="start" />
        <type>eighth</type>
        <accidental>flat</accidental>
        <notations>
          <tied type="start" />
        </notations>
      </note>
      <note dynamics="124.44">
        <pitch>
          <step>E</step>
          <alter>-1</alter>
          <octave>5</octave>
        </pitch>
        <duration>5040</duration>
        <tie type="start" />
        <type>eighth</type>
        <accidental>flat</accidental>
        <notations>
          <tied type="start" />
        </notations>
      </note>
      <note dynamics="124.44">
        <pitch>
          <step>G</step>
          <alter>0</alter>
          <octave>5</octave>
        </pitch>
        <duration>5040</duration>
        <tie type="start" />
        <type>eighth</type>
        <notations>
          <tied type="start" />
        </notations>
      </note>
      <note dynamics="124.44">
        <pitch>
          <step>D</step>
          <alter>0</alter>
          <octave>5</octave>
        </pitch>
        <duration>1260</duration>
        <tie type="stop" />
        <type>32nd</type>
        <notations>
          <tied type="stop" />
        </notations>
      </note>
      <note dynamics="124.44">
        <pitch>
          <step>B</step>
          <alter>-1</alter>
          <octave>4</octave>
        </pitch>
        <duration>1260</duration>
        <tie type="stop" />
        <type>32nd</type>
        <notations>
          <tied type="stop" />
        </notations>
      </note>
      <note dynamics="124.44">
        <pitch>
          <step>E</step>
          <alter>-1</alter>
          <octave>5</octave>
        </pitch>
        <duration>1260</duration>
        <tie type="stop" />
        <type>32nd</type>
        <notations>
          <tied type="stop" />
        </notations>
      </note>
      <note dynamics="124.44">
        <pitch>
          <step>G</step>
          <alter>0</alter>
          <octave>5</octave>
        </pitch>
        <duration>1260</duration>
        <tie type="stop" />
        <type>32nd</type>
        <notations>
          <tied type="stop" />
        </notations>
      </note>
    </measure>
    <!--========================= Measure 22 =========================-->
    <measure implicit="no" number="22">
      <harmony>
        <root>
          <root-step>D</root-step>
        </root>
        <kind>minor-seventh</kind>
      </harmony>
      <note>
        <rest />
        <duration>3780</duration>
        <type>16th</type>
        <dot />
      </note>
      <direction>
        <direction-type>
          <dynamics default-x="-36" default-y="-80">
            <f />
          </dynamics>
        </direction-type>
        <sound dynamics="88" />
      </direction>
      <direction>
        <direction-type>
          <dynamics default-x="-36" default-y="-80">
            <mf />
          </dynamics>
        </direction-type>
        <sound dynamics="69" />
      </direction>
      <note dynamics="106.67">
        <pitch>
          <step>C</step>
          <alter>0</alter>
          <octave>5</octave>
        </pitch>
        <duration>20160</duration>
        <tie type="start" />
        <type>half</type>
        <notations>
          <tied type="start" />
        </notations>
      </note>
      <note dynamics="88.89">
        <pitch>
          <step>D</step>
          <alter>0</alter>
          <octave>5</octave>
        </pitch>
        <duration>20160</duration>
        <tie type="start" />
        <type>half</type>
        <notations>
          <tied type="start" />
        </notations>
      </note>
      <note dynamics="88.89">
        <pitch>
          <step>A</step>
          <alter>0</alter>
          <octave>4</octave>
        </pitch>
        <duration>20160</duration>
        <tie type="start" />
        <type>half</type>
        <notations>
          <tied type="start" />
        </notations>
      </note>
      <note dynamics="88.89">
        <pitch>
          <step>F</step>
          <alter>0</alter>
          <octave>5</octave>
        </pitch>
        <duration>20160</duration>
        <tie type="start" />
        <type>half</type>
        <accidental>natural</accidental>
        <notations>
          <tied type="start" />
        </notations>
      </note>
      <note dynamics="106.67">
        <pitch>
          <step>C</step>
          <alter>0</alter>
          <octave>5</octave>
        </pitch>
        <duration>10080</duration>
        <tie type="stop" />
        <tie type="start" />
        <type>quarter</type>
        <notations>
          <tied type="stop" />
          <tied type="start" />
        </notations>
      </note>
      <note dynamics="88.89">
        <pitch>
          <step>D</step>
          <alter>0</alter>
          <octave>5</octave>
        </pitch>
        <duration>10080</duration>
        <tie type="stop" />
        <tie type="start" />
        <type>quarter</type>
        <notations>
          <tied type="stop" />
          <tied type="start" />
        </notations>
      </note>
      <note dynamics="88.89">
        <pitch>
          <step>A</step>
          <alter>0</alter>
          <octave>4</octave>
        </pitch>
        <duration>10080</duration>
        <tie type="stop" />
        <tie type="start" />
        <type>quarter</type>
        <notations>
          <tied type="stop" />
          <tied type="start" />
        </notations>
      </note>
      <note dynamics="88.89">
        <pitch>
          <step>F</step>
          <alter>0</alter>
          <octave>5</octave>
        </pitch>
        <duration>10080</duration>
        <tie type="stop" />
        <tie type="start" />
        <type>quarter</type>
        <notations>
          <tied type="stop" />
          <tied type="start" />
        </notations>
      </note>
      <note dynamics="106.67">
        <pitch>
          <step>C</step>
          <alter>0</alter>
          <octave>5</octave>
        </pitch>
        <duration>5040</duration>
        <tie type="stop" />
        <tie type="start" />
        <type>eighth</type>
        <notations>
          <tied type="stop" />
          <tied type="start" />
        </notations>
      </note>
      <note dynamics="88.89">
        <pitch>
          <step>D</step>
          <alter>0</alter>
          <octave>5</octave>
        </pitch>
        <duration>5040</duration>
        <tie type="stop" />
        <tie type="start" />
        <type>eighth</type>
        <notations>
          <tied type="stop" />
          <tied type="start" />
        </notations>
      </note>
      <note dynamics="88.89">
        <pitch>
          <step>A</step>
          <alter>0</alter>
          <octave>4</octave>
        </pitch>
        <duration>5040</duration>
        <tie type="stop" />
        <tie type="start" />
        <type>eighth</type>
        <notations>
          <tied type="stop" />
          <tied type="start" />
        </notations>
      </note>
      <note dynamics="88.89">
        <pitch>
          <step>F</step>
          <alter>0</alter>
          <octave>5</octave>
        </pitch>
        <duration>5040</duration>
        <tie type="stop" />
        <tie type="start" />
        <type>eighth</type>
        <notations>
          <tied type="stop" />
          <tied type="start" />
        </notations>
      </note>
      <note dynamics="106.67">
        <pitch>
          <step>C</step>
          <alter>0</alter>
          <octave>5</octave>
        </pitch>
        <duration>1260</duration>
        <tie type="stop" />
        <type>32nd</type>
        <notations>
          <tied type="stop" />
        </notations>
      </note>
      <note dynamics="88.89">
        <pitch>
          <step>D</step>
          <alter>0</alter>
          <octave>5</octave>
        </pitch>
        <duration>1260</duration>
        <tie type="stop" />
        <type>32nd</type>
        <notations>
          <tied type="stop" />
        </notations>
      </note>
      <note dynamics="88.89">
        <pitch>
          <step>A</step>
          <alter>0</alter>
          <octave>4</octave>
        </pitch>
        <duration>1260</duration>
        <tie type="stop" />
        <type>32nd</type>
        <notations>
          <tied type="stop" />
        </notations>
      </note>
      <note dynamics="88.89">
        <pitch>
          <step>F</step>
          <alter>0</alter>
          <octave>5</octave>
        </pitch>
        <duration>1260</duration>
        <tie type="stop" />
        <type>32nd</type>
        <notations>
          <tied type="stop" />
        </notations>
      </note>
    </measure>
    <!--========================= Measure 23 =========================-->
    <measure implicit="no" number="23">
      <note print-object="no" print-spacing="yes">
        <rest measure="yes" />
        <duration>40320</duration>
      </note>
    </measure>
    <!--========================= Measure 24 =========================-->
    <measure implicit="no" number="24">
      <note print-object="no" print-spacing="yes">
        <rest measure="yes" />
        <duration>40320</duration>
      </note>
    </measure>
    <!--========================= Measure 25 =========================-->
    <measure implicit="no" number="25">
      <note print-object="no" print-spacing="yes">
        <rest measure="yes" />
        <duration>40320</duration>
      </note>
    </measure>
    <!--========================= Measure 26 =========================-->
    <measure implicit="no" number="26">
      <note print-object="no" print-spacing="yes">
        <rest measure="yes" />
        <duration>40320</duration>
      </note>
    </measure>
    <!--========================= Measure 27 =========================-->
    <measure implicit="no" number="27">
      <note print-object="no" print-spacing="yes">
        <rest measure="yes" />
        <duration>40320</duration>
      </note>
    </measure>
    <!--========================= Measure 28 =========================-->
    <measure implicit="no" number="28">
      <note print-object="no" print-spacing="yes">
        <rest measure="yes" />
        <duration>40320</duration>
      </note>
    </measure>
    <!--========================= Measure 29 =========================-->
    <measure implicit="no" number="29">
      <harmony>
        <root>
          <root-step>D</root-step>
          <root-alter>1</root-alter>
        </root>
        <kind>major-seventh</kind>
      </harmony>
      <note>
        <rest />
        <duration>17640</duration>
        <type>quarter</type>
        <dot />
        <dot />
      </note>
      <direction>
        <direction-type>
          <dynamics default-x="-36" default-y="-80">
            <ff />
          </dynamics>
        </direction-type>
        <sound dynamics="107" />
      </direction>
      <note dynamics="124.44">
        <pitch>
          <step>E</step>
          <alter>-1</alter>
          <octave>5</octave>
        </pitch>
        <duration>7560</duration>
        <type>eighth</type>
        <dot />
        <accidental>flat</accidental>
      </note>
      <direction>
        <direction-type>
          <dynamics default-x="-36" default-y="-80">
            <f />
          </dynamics>
        </direction-type>
        <offset sound="yes">-6930</offset>
        <sound dynamics="88" />
      </direction>
      <direction>
        <direction-type>
          <dynamics default-x="-36" default-y="-80">
            <mf />
          </dynamics>
        </direction-type>
        <offset sound="yes">-6930</offset>
        <sound dynamics="69" />
      </direction>
      <note dynamics="124.44">
        <pitch>
          <step>D</step>
          <alter>0</alter>
          <octave>5</octave>
        </pitch>
        <duration>5040</duration>
        <type>eighth</type>
        <accidental>natural</accidental>
      </note>
      <note dynamics="106.67">
        <pitch>
          <step>B</step>
          <alter>-1</alter>
          <octave>4</octave>
        </pitch>
        <duration>7560</duration>
        <type>eighth</type>
        <dot />
        <accidental>flat</accidental>
      </note>
      <note dynamics="88.89">
        <pitch>
          <step>G</step>
          <alter>0</alter>
          <octave>5</octave>
        </pitch>
        <duration>7560</duration>
        <type>eighth</type>
        <dot />
      </note>
      <direction>
        <direction-type>
          <dynamics default-x="-36" default-y="-80">
            <f />
          </dynamics>
        </direction-type>
        <offset sound="yes">-22050</offset>
        <sound dynamics="88" />
      </direction>
      <direction>
        <direction-type>
          <dynamics default-x="-36" default-y="-80">
            <mf />
          </dynamics>
        </direction-type>
        <offset sound="yes">-22050</offset>
        <sound dynamics="69" />
      </direction>
      <note dynamics="88.89">
        <pitch>
          <step>E</step>
          <alter>-1</alter>
          <octave>5</octave>
        </pitch>
        <duration>7560</duration>
        <type>eighth</type>
        <dot />
        <accidental>flat</accidental>
      </note>
      <note dynamics="106.67">
        <pitch>
          <step>D</step>
          <alter>0</alter>
          <octave>5</octave>
        </pitch>
        <duration>7560</duration>
        <type>eighth</type>
        <dot />
      </note>
      <note dynamics="88.89">
        <pitch>
          <step>B</step>
          <alter>-1</alter>
          <octave>4</octave>
        </pitch>
        <duration>10080</duration>
        <type>quarter</type>
        <accidental>flat</accidental>
      </note>
      <note dynamics="88.89">
        <pitch>
          <step>G</step>
          <alter>0</alter>
          <octave>5</octave>
        </pitch>
        <duration>15120</duration>
        <type>quarter</type>
        <dot />
      </note>
      <direction>
        <direction-type>
          <dynamics default-x="-36" default-y="-80">
            <f />
          </dynamics>
        </direction-type>
        <offset sound="yes">-57330</offset>
        <sound dynamics="88" />
      </direction>
      <direction>
        <direction-type>
          <dynamics default-x="-36" default-y="-80">
            <mf />
          </dynamics>
        </direction-type>
        <offset sound="yes">-57330</offset>
        <sound dynamics="69" />
      </direction>
      <direction>
        <direction-type>
          <dynamics default-x="-36" default-y="-80">
            <mp />
          </dynamics>
        </direction-type>
        <offset sound="yes">-57330</offset>
        <sound dynamics="57" />
      </direction>
      <note dynamics="106.67">
        <pitch>
          <step>D</step>
          <alter>0</alter>
          <octave>5</octave>
        </pitch>
        <duration>10080</duration>
        <type>quarter</type>
      </note>
      <note dynamics="88.89">
        <pitch>
          <step>E</step>
          <alter>-1</alter>
          <octave>5</octave>
        </pitch>
        <duration>10080</duration>
        <type>quarter</type>
        <accidental>flat</accidental>
      </note>
      <note dynamics="71.11">
        <pitch>
          <step>G</step>
          <alter>0</alter>
          <octave>5</octave>
        </pitch>
        <duration>10080</duration>
        <type>quarter</type>
      </note>
      <note dynamics="71.11">
        <pitch>
          <step>B</step>
          <alter>-1</alter>
          <octave>4</octave>
        </pitch>
        <duration>10080</duration>
        <tie type="start" />
        <type>quarter</type>
        <accidental>flat</accidental>
        <notations>
          <tied type="start" />
        </notations>
      </note>
      <direction>
        <direction-type>
          <dynamics default-x="-36" default-y="-80">
            <mf />
          </dynamics>
        </direction-type>
        <offset sound="yes">-92610</offset>
        <sound dynamics="69" />
      </direction>
      <note dynamics="71.11">
        <pitch>
          <step>G</step>
          <alter>0</alter>
          <octave>5</octave>
        </pitch>
        <duration>5040</duration>
        <tie type="start" />
        <type>eighth</type>
        <notations>
          <tied type="start" />
        </notations>
      </note>
      <note dynamics="88.89">
        <pitch>
          <step>E</step>
          <alter>-1</alter>
          <octave>5</octave>
        </pitch>
        <duration>5040</duration>
        <tie type="start" />
        <type>eighth</type>
        <accidental>flat</accidental>
        <notations>
          <tied type="start" />
        </notations>
      </note>
      <note dynamics="88.89">
        <pitch>
          <step>D</step>
          <alter>0</alter>
          <octave>5</octave>
        </pitch>
        <duration>5040</duration>
        <tie type="start" />
        <type>eighth</type>
        <notations>
          <tied type="start" />
        </notations>
      </note>
      <note dynamics="71.11">
        <pitch>
          <step>B</step>
          <alter>-1</alter>
          <octave>4</octave>
        </pitch>
        <duration>1890</duration>
        <tie type="stop" />
        <type>32nd</type>
        <dot />
        <notations>
          <tied type="stop" />
        </notations>
      </note>
      <note dynamics="71.11">
        <pitch>
          <step>G</step>
          <alter>0</alter>
          <octave>5</octave>
        </pitch>
        <duration>1890</duration>
        <tie type="stop" />
        <type>32nd</type>
        <dot />
        <notations>
          <tied type="stop" />
        </notations>
      </note>
      <note dynamics="88.89">
        <pitch>
          <step>E</step>
          <alter>-1</alter>
          <octave>5</octave>
        </pitch>
        <duration>1890</duration>
        <tie type="stop" />
        <type>32nd</type>
        <dot />
        <notations>
          <tied type="stop" />
        </notations>
      </note>
      <direction>
        <direction-type>
          <dynamics default-x="-36" default-y="-80">
            <ff />
          </dynamics>
        </direction-type>
        <offset sound="yes">-107730</offset>
        <sound dynamics="107" />
      </direction>
      <direction>
        <direction-type>
          <dynamics default-x="-36" default-y="-80">
            <mf />
          </dynamics>
        </direction-type>
        <offset sound="yes">-107730</offset>
        <sound dynamics="69" />
      </direction>
      <direction>
        <direction-type>
          <dynamics default-x="-36" default-y="-80">
            <f />
          </dynamics>
        </direction-type>
        <offset sound="yes">-107730</offset>
        <sound dynamics="88" />
      </direction>
      <note dynamics="124.44">
        <pitch>
          <step>D</step>
          <alter>0</alter>
          <octave>5</octave>
        </pitch>
        <duration>1260</duration>
        <type>32nd</type>
        <accidental>natural</accidental>
      </note>
      <note dynamics="88.89">
        <pitch>
          <step>E</step>
          <alter>-1</alter>
          <octave>5</octave>
        </pitch>
        <duration>1260</duration>
        <type>32nd</type>
        <accidental>flat</accidental>
      </note>
      <note dynamics="106.67">
        <pitch>
          <step>B</step>
          <alter>-1</alter>
          <octave>4</octave>
        </pitch>
        <duration>1260</duration>
        <type>32nd</type>
        <accidental>flat</accidental>
      </note>
      <note dynamics="106.67">
        <pitch>
          <step>G</step>
          <alter>0</alter>
          <octave>5</octave>
        </pitch>
        <duration>1260</duration>
        <type>32nd</type>
      </note>
      <note dynamics="88.89">
        <pitch>
          <step>D</step>
          <alter>0</alter>
          <octave>5</octave>
        </pitch>
        <duration>1260</duration>
        <tie type="stop" />
        <type>32nd</type>
        <notations>
          <tied type="stop" />
        </notations>
      </note>
    </measure>
    <!--========================= Measure 30 =========================-->
    <measure implicit="no" number="30">
      <harmony>
        <root>
          <root-step>D</root-step>
        </root>
        <kind>minor-seventh</kind>
      </harmony>
      <note>
        <rest />
        <duration>8820</duration>
        <type>eighth</type>
        <dot />
        <dot />
      </note>
      <direction>
        <direction-type>
          <dynamics default-x="-36" default-y="-80">
            <mp />
          </dynamics>
        </direction-type>
        <sound dynamics="57" />
      </direction>
      <direction>
        <direction-type>
          <dynamics default-x="-36" default-y="-80">
            <f />
          </dynamics>
        </direction-type>
        <sound dynamics="88" />
      </direction>
      <direction>
        <direction-type>
          <dynamics default-x="-36" default-y="-80">
            <mf />
          </dynamics>
        </direction-type>
        <sound dynamics="69" />
      </direction>
      <note dynamics="71.11">
        <pitch>
          <step>G</step>
          <alter>0</alter>
          <octave>5</octave>
        </pitch>
        <duration>5040</duration>
        <type>eighth</type>
        <accidental>natural</accidental>
      </note>
      <note dynamics="71.11">
        <pitch>
          <step>D</step>
          <alter>0</alter>
          <octave>5</octave>
        </pitch>
        <duration>7560</duration>
        <type>eighth</type>
        <dot />
      </note>
      <note dynamics="106.67">
        <pitch>
          <step>C</step>
          <alter>0</alter>
          <octave>5</octave>
        </pitch>
        <duration>20160</duration>
        <tie type="start" />
        <type>half</type>
        <notations>
          <tied type="start" />
        </notations>
      </note>
      <note dynamics="88.89">
        <pitch>
          <step>A</step>
          <alter>0</alter>
          <octave>4</octave>
        </pitch>
        <duration>20160</duration>
        <tie type="start" />
        <type>half</type>
        <notations>
          <tied type="start" />
        </notations>
      </note>
      <note dynamics="88.89">
        <pitch>
          <step>F</step>
          <alter>0</alter>
          <octave>5</octave>
        </pitch>
        <duration>20160</duration>
        <tie type="start" />
        <type>half</type>
        <accidental>natural</accidental>
        <notations>
          <tied type="start" />
        </notations>
      </note>
      <direction>
        <direction-type>
          <dynamics default-x="-36" default-y="-80">
            <mp />
          </dynamics>
        </direction-type>
        <offset sound="yes">-68040</offset>
        <sound dynamics="57" />
      </direction>
      <note dynamics="71.11">
        <pitch>
          <step>D</step>
          <alter>0</alter>
          <octave>5</octave>
        </pitch>
        <duration>20160</duration>
        <tie type="start" />
        <type>half</type>
        <notations>
          <tied type="start" />
        </notations>
      </note>
      <note dynamics="106.67">
        <pitch>
          <step>C</step>
          <alter>0</alter>
          <octave>5</octave>
        </pitch>
        <duration>10080</duration>
        <tie type="stop" />
        <tie type="start" />
        <type>quarter</type>
        <notations>
          <tied type="stop" />
          <tied type="start" />
        </notations>
      </note>
      <note dynamics="88.89">
        <pitch>
          <step>A</step>
          <alter>0</alter>
          <octave>4</octave>
        </pitch>
        <duration>10080</duration>
        <tie type="stop" />
        <tie type="start" />
        <type>quarter</type>
        <notations>
          <tied type="stop" />
          <tied type="start" />
        </notations>
      </note>
      <note dynamics="88.89">
        <pitch>
          <step>F</step>
          <alter>0</alter>
          <octave>5</octave>
        </pitch>
        <duration>10080</duration>
        <tie type="stop" />
        <tie type="start" />
        <type>quarter</type>
        <notations>
          <tied type="stop" />
          <tied type="start" />
        </notations>
      </note>
      <note dynamics="71.11">
        <pitch>
          <step>D</step>
          <alter>0</alter>
          <octave>5</octave>
        </pitch>
        <duration>5040</duration>
        <tie type="stop" />
        <tie type="start" />
        <type>eighth</type>
        <notations>
          <tied type="stop" />
          <tied type="start" />
        </notations>
      </note>
      <note dynamics="106.67">
        <pitch>
          <step>C</step>
          <alter>0</alter>
          <octave>5</octave>
        </pitch>
        <duration>1260</duration>
        <tie type="stop" />
        <type>32nd</type>
        <notations>
          <tied type="stop" />
        </notations>
      </note>
      <note dynamics="88.89">
        <pitch>
          <step>A</step>
          <alter>0</alter>
          <octave>4</octave>
        </pitch>
        <duration>1260</duration>
        <tie type="stop" />
        <type>32nd</type>
        <notations>
          <tied type="stop" />
        </notations>
      </note>
      <note dynamics="88.89">
        <pitch>
          <step>F</step>
          <alter>0</alter>
          <octave>5</octave>
        </pitch>
        <duration>1260</duration>
        <tie type="stop" />
        <type>32nd</type>
        <notations>
          <tied type="stop" />
        </notations>
      </note>
      <note dynamics="71.11">
        <pitch>
          <step>D</step>
          <alter>0</alter>
          <octave>5</octave>
        </pitch>
        <duration>1260</duration>
        <tie type="stop" />
        <type>32nd</type>
        <notations>
          <tied type="stop" />
        </notations>
      </note>
    </measure>
  </part>
  <!--=========================== Part 2 ===========================-->
  <part id="Pc1a1ed9150dfa55c9cd2c9aee3114cb4">
    <!--========================= Measure 1 ==========================-->
    <measure implicit="no" number="1">
      <attributes>
        <divisions>10080</divisions>
        <key>
          <fifths>1</fifths>
          <mode>major</mode>
        </key>
        <time>
          <beats>4</beats>
          <beat-type>4</beat-type>
        </time>
      </attributes>
      <direction>
        <direction-type>
          <dynamics default-x="-36" default-y="-80">
            <fff />
          </dynamics>
        </direction-type>
        <sound dynamics="114" />
      </direction>
      <note dynamics="141.11">
        <pitch>
          <step>B</step>
          <alter>-1</alter>
          <octave>1</octave>
        </pitch>
        <duration>40320</duration>
        <type>whole</type>
        <accidental>flat</accidental>
      </note>
    </measure>
    <!--========================= Measure 2 ==========================-->
    <measure implicit="no" number="2">
      <note print-object="no" print-spacing="yes">
        <rest measure="yes" />
        <duration>40320</duration>
      </note>
    </measure>
    <!--========================= Measure 3 ==========================-->
    <measure implicit="no" number="3">
      <note>
        <rest />
        <duration>20160</duration>
        <type>half</type>
      </note>
      <note>
        <rest />
        <duration>19530</duration>
        <type>quarter</type>
        <dot />
        <dot />
        <dot />
        <dot />
      </note>
      <note dynamics="141.11">
        <pitch>
          <step>E</step>
          <alter>-1</alter>
          <octave>2</octave>
        </pitch>
        <duration>630</duration>
        <type>64th</type>
        <accidental>flat</accidental>
      </note>
    </measure>
    <!--========================= Measure 4 ==========================-->
    <measure implicit="no" number="4">
      <note>
        <rest />
        <duration>39060</duration>
        <type>half</type>
        <dot />
        <dot />
        <dot />
        <dot />
      </note>
      <note dynamics="141.11">
        <pitch>
          <step>B</step>
          <alter>-1</alter>
          <octave>2</octave>
        </pitch>
        <duration>1260</duration>
        <type>32nd</type>
        <accidental>flat</accidental>
      </note>
    </measure>
    <!--========================= Measure 5 ==========================-->
    <measure implicit="no" number="5">
      <note>
        <rest />
        <duration>39060</duration>
        <type>half</type>
        <dot />
        <dot />
        <dot />
        <dot />
      </note>
      <note dynamics="141.11">
        <pitch>
          <step>G</step>
          <alter>0</alter>
          <octave>2</octave>
        </pitch>
        <duration>1260</duration>
        <type>32nd</type>
        <accidental>natural</accidental>
      </note>
    </measure>
    <!--========================= Measure 6 ==========================-->
    <measure implicit="no" number="6">
      <note>
        <rest />
        <duration>39060</duration>
        <type>half</type>
        <dot />
        <dot />
        <dot />
        <dot />
      </note>
      <note dynamics="141.11">
        <pitch>
          <step>F</step>
          <alter>0</alter>
          <octave>1</octave>
        </pitch>
        <duration>1260</duration>
        <type>32nd</type>
        <accidental>natural</accidental>
      </note>
    </measure>
    <!--========================= Measure 7 ==========================-->
    <measure implicit="no" number="7">
      <note>
        <rest />
        <duration>39060</duration>
        <type>half</type>
        <dot />
        <dot />
        <dot />
        <dot />
      </note>
      <note dynamics="141.11">
        <pitch>
          <step>G</step>
          <alter>0</alter>
          <octave>1</octave>
        </pitch>
        <duration>1260</duration>
        <type>32nd</type>
        <accidental>natural</accidental>
      </note>
    </measure>
    <!--========================= Measure 8 ==========================-->
    <measure implicit="no" number="8">
      <note>
        <rest />
        <duration>39060</duration>
        <type>half</type>
        <dot />
        <dot />
        <dot />
        <dot />
      </note>
      <note dynamics="141.11">
        <pitch>
          <step>F</step>
          <alter>0</alter>
          <octave>1</octave>
        </pitch>
        <duration>1260</duration>
        <type>32nd</type>
        <accidental>natural</accidental>
      </note>
    </measure>
    <!--========================= Measure 9 ==========================-->
    <measure implicit="no" number="9">
      <note>
        <rest />
        <duration>39060</duration>
        <type>half</type>
        <dot />
        <dot />
        <dot />
        <dot />
      </note>
      <note dynamics="141.11">
        <pitch>
          <step>G</step>
          <alter>0</alter>
          <octave>2</octave>
        </pitch>
        <duration>1260</duration>
        <type>32nd</type>
        <accidental>natural</accidental>
      </note>
    </measure>
    <!--========================= Measure 10 =========================-->
    <measure implicit="no" number="10">
      <note>
        <rest />
        <duration>39060</duration>
        <type>half</type>
        <dot />
        <dot />
        <dot />
        <dot />
      </note>
      <note dynamics="141.11">
        <pitch>
          <step>B</step>
          <alter>-1</alter>
          <octave>2</octave>
        </pitch>
        <duration>1260</duration>
        <type>32nd</type>
        <accidental>flat</accidental>
      </note>
    </measure>
    <!--========================= Measure 11 =========================-->
    <measure implicit="no" number="11">
      <note>
        <rest />
        <duration>39060</duration>
        <type>half</type>
        <dot />
        <dot />
        <dot />
        <dot />
      </note>
      <note dynamics="141.11">
        <pitch>
          <step>F</step>
          <alter>0</alter>
          <octave>1</octave>
        </pitch>
        <duration>1260</duration>
        <type>32nd</type>
        <accidental>natural</accidental>
      </note>
    </measure>
    <!--========================= Measure 12 =========================-->
    <measure implicit="no" number="12">
      <note>
        <rest />
        <duration>39060</duration>
        <type>half</type>
        <dot />
        <dot />
        <dot />
        <dot />
      </note>
      <note dynamics="141.11">
        <pitch>
          <step>F</step>
          <alter>0</alter>
          <octave>1</octave>
        </pitch>
        <duration>1260</duration>
        <type>32nd</type>
        <accidental>natural</accidental>
      </note>
    </measure>
    <!--========================= Measure 13 =========================-->
    <measure implicit="no" number="13">
      <note>
        <rest />
        <duration>39060</duration>
        <type>half</type>
        <dot />
        <dot />
        <dot />
        <dot />
      </note>
      <note dynamics="141.11">
        <pitch>
          <step>B</step>
          <alter>-1</alter>
          <octave>2</octave>
        </pitch>
        <duration>1260</duration>
        <type>32nd</type>
        <accidental>flat</accidental>
      </note>
    </measure>
    <!--========================= Measure 14 =========================-->
    <measure implicit="no" number="14">
      <note>
        <rest />
        <duration>39060</duration>
        <type>half</type>
        <dot />
        <dot />
        <dot />
        <dot />
      </note>
      <note dynamics="141.11">
        <pitch>
          <step>G</step>
          <alter>1</alter>
          <octave>2</octave>
        </pitch>
        <duration>1260</duration>
        <type>32nd</type>
        <accidental>sharp</accidental>
      </note>
    </measure>
    <!--========================= Measure 15 =========================-->
    <measure implicit="no" number="15">
      <note>
        <rest />
        <duration>39060</duration>
        <type>half</type>
        <dot />
        <dot />
        <dot />
        <dot />
      </note>
      <note dynamics="141.11">
        <pitch>
          <step>F</step>
          <alter>0</alter>
          <octave>1</octave>
        </pitch>
        <duration>1260</duration>
        <type>32nd</type>
        <accidental>natural</accidental>
      </note>
    </measure>
    <!--========================= Measure 16 =========================-->
    <measure implicit="no" number="16">
      <note>
        <rest />
        <duration>20160</duration>
        <type>half</type>
      </note>
      <note>
        <rest />
        <duration>10080</duration>
        <type>quarter</type>
      </note>
      <note>
        <rest />
        <duration>5040</duration>
        <type>eighth</type>
      </note>
      <note>
        <rest />
        <duration>2520</duration>
        <type>16th</type>
      </note>
      <note>
        <rest />
        <duration>630</duration>
        <type>64th</type>
      </note>
      <note dynamics="141.11">
        <pitch>
          <step>F</step>
          <alter>0</alter>
          <octave>1</octave>
        </pitch>
        <duration>1890</duration>
        <type>32nd</type>
        <dot />
        <accidental>natural</accidental>
      </note>
    </measure>
    <!--========================= Measure 17 =========================-->
    <measure implicit="no" number="17">
      <note>
        <rest />
        <duration>20160</duration>
        <type>half</type>
      </note>
      <note>
        <rest />
        <duration>10080</duration>
        <type>quarter</type>
      </note>
      <note>
        <rest />
        <duration>5040</duration>
        <type>eighth</type>
      </note>
      <note>
        <rest />
        <duration>2520</duration>
        <type>16th</type>
      </note>
      <note>
        <rest />
        <duration>630</duration>
        <type>64th</type>
      </note>
      <note dynamics="141.11">
        <pitch>
          <step>F</step>
          <alter>0</alter>
          <octave>1</octave>
        </pitch>
        <duration>1890</duration>
        <type>32nd</type>
        <dot />
        <accidental>natural</accidental>
      </note>
    </measure>
    <!--========================= Measure 18 =========================-->
    <measure implicit="no" number="18">
      <note print-object="no" print-spacing="yes">
        <rest measure="yes" />
        <duration>40320</duration>
      </note>
    </measure>
    <!--========================= Measure 19 =========================-->
    <measure implicit="no" number="19">
      <note>
        <rest />
        <duration>39060</duration>
        <type>half</type>
        <dot />
        <dot />
        <dot />
        <dot />
      </note>
      <note dynamics="141.11">
        <pitch>
          <step>E</step>
          <alter>-1</alter>
          <octave>2</octave>
        </pitch>
        <duration>1260</duration>
        <type>32nd</type>
        <accidental>flat</accidental>
      </note>
    </measure>
    <!--========================= Measure 20 =========================-->
    <measure implicit="no" number="20">
      <note>
        <rest />
        <duration>20160</duration>
        <type>half</type>
      </note>
      <note>
        <rest />
        <duration>10080</duration>
        <type>quarter</type>
      </note>
      <note>
        <rest />
        <duration>5040</duration>
        <type>eighth</type>
      </note>
      <note>
        <rest />
        <duration>2520</duration>
        <type>16th</type>
      </note>
      <note>
        <rest />
        <duration>630</duration>
        <type>64th</type>
      </note>
      <note dynamics="141.11">
        <pitch>
          <step>G</step>
          <alter>0</alter>
          <octave>2</octave>
        </pitch>
        <duration>1890</duration>
        <type>32nd</type>
        <dot />
        <accidental>natural</accidental>
      </note>
    </measure>
    <!--========================= Measure 21 =========================-->
    <measure implicit="no" number="21">
      <note>
        <rest />
        <duration>20160</duration>
        <type>half</type>
      </note>
      <note>
        <rest />
        <duration>10080</duration>
        <type>quarter</type>
      </note>
      <note>
        <rest />
        <duration>5040</duration>
        <type>eighth</type>
      </note>
      <note>
        <rest />
        <duration>2520</duration>
        <type>16th</type>
      </note>
      <note>
        <rest />
        <duration>630</duration>
        <type>64th</type>
      </note>
      <note dynamics="141.11">
        <pitch>
          <step>B</step>
          <alter>-1</alter>
          <octave>2</octave>
        </pitch>
        <duration>1890</duration>
        <type>32nd</type>
        <dot />
        <accidental>flat</accidental>
      </note>
    </measure>
    <!--========================= Measure 22 =========================-->
    <measure implicit="no" number="22">
      <note>
        <rest />
        <duration>20160</duration>
        <type>half</type>
      </note>
      <note>
        <rest />
        <duration>10080</duration>
        <type>quarter</type>
      </note>
      <note>
        <rest />
        <duration>5040</duration>
        <type>eighth</type>
      </note>
      <note>
        <rest />
        <duration>2520</duration>
        <type>16th</type>
      </note>
      <note>
        <rest />
        <duration>630</duration>
        <type>64th</type>
      </note>
      <note dynamics="141.11">
        <pitch>
          <step>F</step>
          <alter>0</alter>
          <octave>1</octave>
        </pitch>
        <duration>1890</duration>
        <type>32nd</type>
        <dot />
        <accidental>natural</accidental>
      </note>
    </measure>
    <!--========================= Measure 23 =========================-->
    <measure implicit="no" number="23">
      <note>
        <rest />
        <duration>20160</duration>
        <type>half</type>
      </note>
      <note>
        <rest />
        <duration>10080</duration>
        <type>quarter</type>
      </note>
      <note>
        <rest />
        <duration>5040</duration>
        <type>eighth</type>
      </note>
      <note>
        <rest />
        <duration>2520</duration>
        <type>16th</type>
      </note>
      <note>
        <rest />
        <duration>630</duration>
        <type>64th</type>
      </note>
      <note dynamics="141.11">
        <pitch>
          <step>B</step>
          <alter>-1</alter>
          <octave>2</octave>
        </pitch>
        <duration>1890</duration>
        <type>32nd</type>
        <dot />
        <accidental>flat</accidental>
      </note>
    </measure>
    <!--========================= Measure 24 =========================-->
    <measure implicit="no" number="24">
      <note>
        <rest />
        <duration>39060</duration>
        <type>half</type>
        <dot />
        <dot />
        <dot />
        <dot />
      </note>
      <note dynamics="141.11">
        <pitch>
          <step>F</step>
          <alter>0</alter>
          <octave>1</octave>
        </pitch>
        <duration>1260</duration>
        <type>32nd</type>
        <accidental>natural</accidental>
      </note>
    </measure>
    <!--========================= Measure 25 =========================-->
    <measure implicit="no" number="25">
      <note>
        <rest />
        <duration>39060</duration>
        <type>half</type>
        <dot />
        <dot />
        <dot />
        <dot />
      </note>
      <note dynamics="141.11">
        <pitch>
          <step>F</step>
          <alter>0</alter>
          <octave>1</octave>
        </pitch>
        <duration>1260</duration>
        <type>32nd</type>
        <accidental>natural</accidental>
      </note>
    </measure>
    <!--========================= Measure 26 =========================-->
    <measure implicit="no" number="26">
      <note>
        <rest />
        <duration>39060</duration>
        <type>half</type>
        <dot />
        <dot />
        <dot />
        <dot />
      </note>
      <note dynamics="141.11">
        <pitch>
          <step>G</step>
          <alter>0</alter>
          <octave>1</octave>
        </pitch>
        <duration>1260</duration>
        <type>32nd</type>
        <accidental>natural</accidental>
      </note>
    </measure>
    <!--========================= Measure 27 =========================-->
    <measure implicit="no" number="27">
      <note>
        <rest />
        <duration>39060</duration>
        <type>half</type>
        <dot />
        <dot />
        <dot />
        <dot />
      </note>
      <note dynamics="141.11">
        <pitch>
          <step>F</step>
          <alter>0</alter>
          <octave>1</octave>
        </pitch>
        <duration>1260</duration>
        <type>32nd</type>
        <accidental>natural</accidental>
      </note>
    </measure>
    <!--========================= Measure 28 =========================-->
    <measure implicit="no" number="28">
      <note>
        <rest />
        <duration>20160</duration>
        <type>half</type>
      </note>
      <note>
        <rest />
        <duration>19530</duration>
        <type>quarter</type>
        <dot />
        <dot />
        <dot />
        <dot />
      </note>
      <note dynamics="141.11">
        <pitch>
          <step>B</step>
          <alter>-1</alter>
          <octave>2</octave>
        </pitch>
        <duration>630</duration>
        <type>64th</type>
        <accidental>flat</accidental>
      </note>
    </measure>
    <!--========================= Measure 29 =========================-->
    <measure implicit="no" number="29">
      <note>
        <rest />
        <duration>39060</duration>
        <type>half</type>
        <dot />
        <dot />
        <dot />
        <dot />
      </note>
      <note dynamics="141.11">
        <pitch>
          <step>G</step>
          <alter>0</alter>
          <octave>2</octave>
        </pitch>
        <duration>1260</duration>
        <type>32nd</type>
        <accidental>natural</accidental>
      </note>
    </measure>
    <!--========================= Measure 30 =========================-->
    <measure implicit="no" number="30">
      <note>
        <rest />
        <duration>39060</duration>
        <type>half</type>
        <dot />
        <dot />
        <dot />
        <dot />
      </note>
      <note dynamics="141.11">
        <pitch>
          <step>C</step>
          <alter>0</alter>
          <octave>3</octave>
        </pitch>
        <duration>1260</duration>
        <type>32nd</type>
        <accidental>natural</accidental>
      </note>
    </measure>
    <!--========================= Measure 31 =========================-->
    <measure implicit="no" number="31">
      <note>
        <rest />
        <duration>39060</duration>
        <type>half</type>
        <dot />
        <dot />
        <dot />
        <dot />
      </note>
      <note dynamics="141.11">
        <pitch>
          <step>F</step>
          <alter>0</alter>
          <octave>1</octave>
        </pitch>
        <duration>1260</duration>
        <type>32nd</type>
        <accidental>natural</accidental>
      </note>
    </measure>
    <!--========================= Measure 32 =========================-->
    <measure implicit="no" number="32">
      <note>
        <rest />
        <duration>39060</duration>
        <type>half</type>
        <dot />
        <dot />
        <dot />
        <dot />
      </note>
      <note dynamics="141.11">
        <pitch>
          <step>B</step>
          <alter>-1</alter>
          <octave>2</octave>
        </pitch>
        <duration>1260</duration>
        <type>32nd</type>
        <accidental>flat</accidental>
      </note>
    </measure>
  </part>
</score-partwise>