<?xml version="1.0" encoding="UTF-8"?>
<score-partwise version="4.0"><work><work-title>Acompañamiento Generado</work-title></work><movement-title>Acompañamiento Generado</movement-title><identification><creator type="composer">Music21</creator><encoding><encoding-date>2026-03-16</encoding-date><software>music21 v.9.9.1</software></encoding></identification><defaults><scaling><millimeters>7</millimeters><tenths>40</tenths></scaling></defaults><part-list><score-part id="P20e5005a97c72daba08e09be65916b8f"><part-name>Melodía</part-name><part-abbreviation>Gtr</part-abbreviation><score-instrument id="I6f24e8f2c9ffdf6f4e812161a4d82d3e"><instrument-name>Guitar</instrument-name><instrument-abbreviation>Gtr</instrument-abbreviation></score-instrument><midi-instrument id="I6f24e8f2c9ffdf6f4e812161a4d82d3e"><midi-channel>1</midi-channel><midi-program>25</midi-program></midi-instrument></score-part><score-part id="P97f68f7b998db4c198495323324cba0b"><part-name>Bass (FUNK)</part-name><part-abbreviation>Elec b</part-abbreviation><score-instrument id="I22d46ec30773efe53866e0eed7da2d3d"><instrument-name>Electric Bass</instrument-name><instrument-abbreviation>Elec b</instrument-abbreviation></score-instrument><midi-instrument id="I22d46ec30773efe53866e0eed7da2d3d"><midi-channel>2</midi-channel><midi-program>34</midi-program></midi-instrument></score-part></part-list><!--=========================== Part 1 ===========================--><part id="P20e5005a97c72daba08e09be65916b8f"><!--========================= Measure 1 ==========================--><measure number="1" implicit="no"><attributes><divisions>10080</divisions><key><fifths>1</fifths><mode>major</mode></key><time><beats>4</beats><beat-type>4</beat-type></time><clef><sign>G</sign><line>2</line></clef></attributes><direction><direction-type><metronome parentheses="no"><beat-unit>quarter</beat-unit><per-minute>160</per-minute></metronome></direction-type><sound tempo="160" /></direction></measure><!--========================= Measure 2 ==========================--><measure number="2" implicit="no" /><!--========================= Measure 3 ==========================--><measure number="3" implicit="no" /><!--========================= Measure 4 ==========================--><measure number="4" implicit="no" /><!--========================= Measure 5 ==========================--><measure number="5" implicit="no" /><!--========================= Measure 6 ==========================--><measure number="6" implicit="no" /><!--========================= Measure 7 ==========================--><measure number="7" implicit="no" /><!--========================= Measure 8 ==========================--><measure number="8" implicit="no" /><!--========================= Measure 9 ==========================--><measure number="9" implicit="no" /><!--========================= Measure 10 =========================--><measure number="10" implicit="no" /><!--========================= Measure 11 =========================--><measure number="11" implicit="no" /><!--========================= Measure 12 =========================--><measure number="12" implicit="no" /><!--========================= Measure 13 =========================--><measure number="13" implicit="no" /><!--========================= Measure 14 =========================--><measure number="14" implicit="no" /><!--========================= Measure 15 =========================--><measure number="15" implicit="no" /><!--========================= Measure 16 =========================--><measure number="16" implicit="no" /><!--========================= Measure 17 =========================--><measure number="17" implicit="no" /><!--========================= Measure 18 =========================--><measure number="18" implicit="no" /><!--========================= Measure 19 =========================--><measure number="19" implicit="no" /><!--========================= Measure 20 =========================--><measure number="20" implicit="no" /><!--========================= Measure 21 =========================--><measure number="21" implicit="no"><harmony><root><root-step>D</root-step><root-alter>1</root-alter></root><kind>major-seventh</kind></harmony><note><rest /><duration>10080</duration><type>quarter</type></note><note><rest /><duration>2520</duration><type>16th</type></note><note><rest /><duration>630</duration><type>64th</type></note><direction><direction-type><dynamics default-x="-36" default-y="-80"><f /></dynamics></direction-type><sound dynamics="88" /></direction><direction><direction-type><dynamics default-x="-36" default-y="-80"><mf /></dynamics></direction-type><sound dynamics="69" /></direction><direction><direction-type><dynamics default-x="-36" default-y="-80"><ff /></dynamics></direction-type><sound dynamics="107" /></direction><direction><direction-type><dynamics default-x="-36" default-y="-80"><f /></dynamics></direction-type><sound dynamics="88" /></direction><note dynamics="106.67"><pitch><step>D</step><alter>0</alter><octave>5</octave></pitch><duration>2520</duration><type>16th</type><accidental>natural</accidental></note><note dynamics="88.89"><pitch><step>G</step><alter>0</alter><octave>5</octave></pitch><duration>5040</duration><type>eighth</type><accidental>natural</accidental></note><note dynamics="124.44"><pitch><step>E</step><alter>-1</alter><octave>5</octave></pitch><duration>5040</duration><type>eighth</type><accidental>flat</accidental></note><note dynamics="106.67"><pitch><step>B</step><alter>-1</alter><octave>4</octave></pitch><duration>5040</duration><type>eighth</type><accidental>flat</accidental></note><direction><direction-type><dynamics default-x="-36" default-y="-80"><mf /></dynamics></direction-type><offset sound="yes">-12600</offset><sound dynamics="69" /></direction><direction><direction-type><dynamics default-x="-36" default-y="-80"><f /></dynamics></direction-type><offset sound="yes">-12600</offset><sound dynamics="88" /></direction><direction><direction-type><dynamics default-x="-36" default-y="-80"><mf /></dynamics></direction-type><offset sound="yes">-12600</offset><sound dynamics="69" /></direction><note dynamics="88.89"><pitch><step>D</step><alter>0</alter><octave>5</octave></pitch><duration>2520</duration><type>16th</type><accidental>natural</accidental></note><note dynamics="88.89"><pitch><step>E</step><alter>-1</alter><octave>5</octave></pitch><duration>7560</duration><type>eighth</type><dot /><accidental>flat</accidental></note><note dynamics="106.67"><pitch><step>B</step><alter>-1</alter><octave>4</octave></pitch><duration>7560</duration><type>eighth</type><dot /><accidental>flat</accidental></note><note dynamics="88.89"><pitch><step>G</step><alter>0</alter><octave>5</octave></pitch><duration>7560</duration><type>eighth</type><dot /><accidental>natural</accidental></note><direction><direction-type><dynamics default-x="-36" default-y="-80"><mp /></dynamics></direction-type><offset sound="yes">-33390</offset><sound dynamics="57" /></direction><note dynamics="71.11"><pitch><step>G</step><alter>0</alter><octave>5</octave></pitch><duration>10080</duration><type>quarter</type><accidental>natural</accidental></note><direction><direction-type><dynamics default-x="-36" default-y="-80"><mf /></dynamics></direction-type><offset sound="yes">-42840</offset><sound dynamics="69" /></direction><direction><direction-type><dynamics default-x="-36" default-y="-80"><mp /></dynamics></direction-type><offset sound="yes">-42840</offset><sound dynamics="57" /></direction><note dynamics="71.11"><pitch><step>E</step><alter>-1</alter><octave>5</octave></pitch><duration>7560</duration><type>eighth</type><dot /><accidental>flat</accidental></note><note dynamics="88.89"><pitch><step>D</step><alter>0</alter><octave>5</octave></pitch><duration>7560</duration><type>eighth</type><dot /><accidental>natural</accidental></note><note dynamics="71.11"><pitch><step>B</step><alter>-1</alter><octave>4</octave></pitch><duration>15120</duration><type>quarter</type><dot /><accidental>flat</accidental></note><direction><direction-type><dynamics default-x="-36" default-y="-80"><mf /></dynamics></direction-type><offset sound="yes">-67410</offset><sound dynamics="69" /></direction><direction><direction-type><dynamics default-x="-36" default-y="-80"><f /></dynamics></direction-type><offset sound="yes">-67410</offset><sound dynamics="88" /></direction><direction><direction-type><dynamics default-x="-36" default-y="-80"><mf /></dynamics></direction-type><offset sound="yes">-67410</offset><sound dynamics="69" /></direction><note dynamics="71.11"><pitch><step>B</step><alter>-1</alter><octave>4</octave></pitch><duration>5040</duration><type>eighth</type><accidental>flat</accidental></note><note dynamics="88.89"><pitch><step>G</step><alter>0</alter><octave>5</octave></pitch><duration>7560</duration><type>eighth</type><dot /><accidental>natural</accidental></note><note dynamics="106.67"><pitch><step>D</step><alter>0</alter><octave>5</octave></pitch><duration>7560</duration><type>eighth</type><dot /><accidental>natural</accidental></note><note dynamics="88.89"><pitch><step>E</step><alter>-1</alter><octave>5</octave></pitch><duration>7560</duration><type>eighth</type><dot /><accidental>flat</accidental></note><direction><direction-type><dynamics default-x="-36" default-y="-80"><ff /></dynamics></direction-type><offset sound="yes">-90090</offset><sound dynamics="107" /></direction><note dynamics="124.44"><pitch><step>D</step><alter>0</alter><octave>5</octave></pitch><duration>5040</duration><tie type="start" /><type>eighth</type><accidental>natural</accidental><notations><tied type="start" /></notations></note><note dynamics="124.44"><pitch><step>B</step><alter>-1</alter><octave>4</octave></pitch><duration>5040</duration><tie type="start" /><type>eighth</type><accidental>flat</accidental><notations><tied type="start" /></notations></note><note dynamics="124.44"><pitch><step>E</step><alter>-1</alter><octave>5</octave></pitch><duration>5040</duration><tie type="start" /><type>eighth</type><accidental>flat</accidental><notations><tied type="start" /></notations></note><note dynamics="124.44"><pitch><step>G</step><alter>0</alter><octave>5</octave></pitch><duration>5040</duration><tie type="start" /><type>eighth</type><accidental>natural</accidental><notations><tied type="start" /></notations></note><note dynamics="124.44"><pitch><step>D</step><alter>0</alter><octave>5</octave></pitch><duration>1260</duration><tie type="stop" /><type>32nd</type><notations><tied type="stop" /></notations></note><note dynamics="124.44"><pitch><step>B</step><alter>-1</alter><octave>4</octave></pitch><duration>1260</duration><tie type="stop" /><type>32nd</type><notations><tied type="stop" /></notations></note><note dynamics="124.44"><pitch><step>E</step><alter>-1</alter><octave>5</octave></pitch><duration>1260</duration><tie type="stop" /><type>32nd</type><notations><tied type="stop" /></notations></note><note dynamics="124.44"><pitch><step>G</step><alter>0</alter><octave>5</octave></pitch><duration>1260</duration><tie type="stop" /><type>32nd</type><notations><tied type="stop" /></notations></note></measure><!--========================= Measure 22 =========================--><measure number="22" implicit="no"><harmony><root><root-step>D</root-step></root><kind>minor-seventh</kind></harmony><note><rest /><duration>3780</duration><type>16th</type><dot /></note><direction><direction-type><dynamics default-x="-36" default-y="-80"><f /></dynamics></direction-type><sound dynamics="88" /></direction><direction><direction-type><dynamics default-x="-36" default-y="-80"><mf /></dynamics></direction-type><sound dynamics="69" /></direction><note dynamics="106.67"><pitch><step>C</step><alter>0</alter><octave>5</octave></pitch><duration>20160</duration><tie type="start" /><type>half</type><accidental>natural</accidental><notations><tied type="start" /></notations></note><note dynamics="88.89"><pitch><step>D</step><alter>0</alter><octave>5</octave></pitch><duration>20160</duration><tie type="start" /><type>half</type><accidental>natural</accidental><notations><tied type="start" /></notations></note><note dynamics="88.89"><pitch><step>A</step><alter>0</alter><octave>4</octave></pitch><duration>20160</duration><tie type="start" /><type>half</type><accidental>natural</accidental><notations><tied type="start" /></notations></note><note dynamics="88.89"><pitch><step>F</step><alter>0</alter><octave>5</octave></pitch><duration>20160</duration><tie type="start" /><type>half</type><accidental>natural</accidental><notations><tied type="start" /></notations></note><note dynamics="106.67"><pitch><step>C</step><alter>0</alter><octave>5</octave></pitch><duration>10080</duration><tie type="stop" /><tie type="start" /><type>quarter</type><notations><tied type="stop" /><tied type="start" /></notations></note><note dynamics="88.89"><pitch><step>D</step><alter>0</alter><octave>5</octave></pitch><duration>10080</duration><tie type="stop" /><tie type="start" /><type>quarter</type><notations><tied type="stop" /><tied type="start" /></notations></note><note dynamics="88.89"><pitch><step>A</step><alter>0</alter><octave>4</octave></pitch><duration>10080</duration><tie type="stop" /><tie type="start" /><type>quarter</type><notations><tied type="stop" /><tied type="start" /></notations></note><note dynamics="88.89"><pitch><step>F</step><alter>0</alter><octave>5</octave></pitch><duration>10080</duration><tie type="stop" /><tie type="start" /><type>quarter</type><notations><tied type="stop" /><tied type="start" /></notations></note><note dynamics="106.67"><pitch><step>C</step><alter>0</alter><octave>5</octave></pitch><duration>5040</duration><tie type="stop" /><tie type="start" /><type>eighth</type><notations><tied type="stop" /><tied type="start" /></notations></note><note dynamics="88.89"><pitch><step>D</step><alter>0</alter><octave>5</octave></pitch><duration>5040</duration><tie type="stop" /><tie type="start" /><type>eighth</type><notations><tied type="stop" /><tied type="start" /></notations></note><note dynamics="88.89"><pitch><step>A</step><alter>0</alter><octave>4</octave></pitch><duration>5040</duration><tie type="stop" /><tie type="start" /><type>eighth</type><notations><tied type="stop" /><tied type="start" /></notations></note><note dynamics="88.89"><pitch><step>F</step><alter>0</alter><octave>5</octave></pitch><duration>5040</duration><tie type="stop" /><tie type="start" /><type>eighth</type><notations><tied type="stop" /><tied type="start" /></notations></note><note dynamics="106.67"><pitch><step>C</step><alter>0</alter><octave>5</octave></pitch><duration>1260</duration><tie type="stop" /><type>32nd</type><notations><tied type="stop" /></notations></note><note dynamics="88.89"><pitch><step>D</step><alter>0</alter><octave>5</octave></pitch><duration>1260</duration><tie type="stop" /><type>32nd</type><notations><tied type="stop" /></notations></note><note dynamics="88.89"><pitch><step>A</step><alter>0</alter><octave>4</octave></pitch><duration>1260</duration><tie type="stop" /><type>32nd</type><notations><tied type="stop" /></notations></note><note dynamics="88.89"><pitch><step>F</step><alter>0</alter><octave>5</octave></pitch><duration>1260</duration><tie type="stop" /><type>32nd</type><notations><tied type="stop" /></notations></note></measure><!--========================= Measure 23 =========================--><measure number="23" implicit="no" /><!--========================= Measure 24 =========================--><measure number="24" implicit="no" /><!--========================= Measure 25 =========================--><measure number="25" implicit="no" /><!--========================= Measure 26 =========================--><measure number="26" implicit="no" /><!--========================= Measure 27 =========================--><measure number="27" implicit="no" /><!--========================= Measure 28 =========================--><measure number="28" implicit="no" /><!--========================= Measure 29 =========================--><measure number="29" implicit="no"><harmony><root><root-step>D</root-step><root-alter>1</root-alter></root><kind>major-seventh</kind></harmony><note><rest /><duration>17640</duration><type>quarter</type><dot /><dot /></note><direction><direction-type><dynamics default-x="-36" default-y="-80"><ff /></dynamics></direction-type><sound dynamics="107" /></direction><note dynamics="124.44"><pitch><step>E</step><alter>-1</alter><octave>5</octave></pitch><duration>7560</duration><type>eighth</type><dot /><accidental>flat</accidental></note><direction><direction-type><dynamics default-x="-36" default-y="-80"><f /></dynamics></direction-type><offset sound="yes">-6930</offset><sound dynamics="88" /></direction><direction><direction-type><dynamics default-x="-36" default-y="-80"><mf /></dynamics></direction-type><offset sound="yes">-6930</offset><sound dynamics="69" /></direction><note dynamics="124.44"><pitch><step>D</step><alter>0</alter><octave>5</octave></pitch><duration>5040</duration><type>eighth</type><accidental>natural</accidental></note><note dynamics="106.67"><pitch><step>B</step><alter>-1</alter><octave>4</octave></pitch><duration>7560</duration><type>eighth</type><dot /><accidental>flat</accidental></note><note dynamics="88.89"><pitch><step>G</step><alter>0</alter><octave>5</octave></pitch><duration>7560</duration><type>eighth</type><dot /><accidental>natural</accidental></note><direction><direction-type><dynamics default-x="-36" default-y="-80"><f /></dynamics></direction-type><offset sound="yes">-22050</offset><sound dynamics="88" /></direction><direction><direction-type><dynamics default-x="-36" default-y="-80"><mf /></dynamics></direction-type><offset sound="yes">-22050</offset><sound dynamics="69" /></direction><note dynamics="88.89"><pitch><step>E</step><alter>-1</alter><octave>5</octave></pitch><duration>7560</duration><type>eighth</type><dot /><accidental>flat</accidental></note><note dynamics="106.67"><pitch><step>D</step><alter>0</alter><octave>5</octave></pitch><duration>7560</duration><type>eighth</type><dot /><accidental>natural</accidental></note><note dynamics="88.89"><pitch><step>B</step><alter>-1</alter><octave>4</octave></pitch><duration>10080</duration><type>quarter</type><accidental>flat</accidental></note><note dynamics="88.89"><pitch><step>G</step><alter>0</alter><octave>5</octave></pitch><duration>15120</duration><type>quarter</type><dot /><accidental>natural</accidental></note><direction><direction-type><dynamics default-x="-36" default-y="-80"><f /></dynamics></direction-type><offset sound="yes">-57330</offset><sound dynamics="88" /></direction><direction><direction-type><dynamics default-x="-36" default-y="-80"><mf /></dynamics></direction-type><offset sound="yes">-57330</offset><sound dynamics="69" /></direction><direction><direction-type><dynamics default-x="-36" default-y="-80"><mp /></dynamics></direction-type><offset sound="yes">-57330</offset><sound dynamics="57" /></direction><note dynamics="106.67"><pitch><step>D</step><alter>0</alter><octave>5</octave></pitch><duration>10080</duration><type>quarter</type><accidental>natural</accidental></note><note dynamics="88.89"><pitch><step>E</step><alter>-1</alter><octave>5</octave></pitch><duration>10080</duration><type>quarter</type><accidental>flat</accidental></note><note dynamics="71.11"><pitch><step>G</step><alter>0</alter><octave>5</octave></pitch><duration>10080</duration><type>quarter</type><accidental>natural</accidental></note><note dynamics="71.11"><pitch><step>B</step><alter>-1</alter><octave>4</octave></pitch><duration>10080</duration><tie type="start" /><type>quarter</type><accidental>flat</accidental><notations><tied type="start" /></notations></note><direction><direction-type><dynamics default-x="-36" default-y="-80"><mf /></dynamics></direction-type><offset sound="yes">-92610</offset><sound dynamics="69" /></direction><note dynamics="71.11"><pitch><step>G</step><alter>0</alter><octave>5</octave></pitch><duration>5040</duration><tie type="start" /><type>eighth</type><accidental>natural</accidental><notations><tied type="start" /></notations></note><note dynamics="88.89"><pitch><step>E</step><alter>-1</alter><octave>5</octave></pitch><duration>5040</duration><tie type="start" /><type>eighth</type><accidental>flat</accidental><notations><tied type="start" /></notations></note><note dynamics="88.89"><pitch><step>D</step><alter>0</alter><octave>5</octave></pitch><duration>5040</duration><tie type="start" /><type>eighth</type><accidental>natural</accidental><notations><tied type="start" /></notations></note><note dynamics="71.11"><pitch><step>B</step><alter>-1</alter><octave>4</octave></pitch><duration>1890</duration><tie type="stop" /><type>32nd</type><dot /><notations><tied type="stop" /></notations></note><note dynamics="71.11"><pitch><step>G</step><alter>0</alter><octave>5</octave></pitch><duration>1890</duration><tie type="stop" /><type>32nd</type><dot /><notations><tied type="stop" /></notations></note><note dynamics="88.89"><pitch><step>E</step><alter>-1</alter><octave>5</octave></pitch><duration>1890</duration><tie type="stop" /><type>32nd</type><dot /><notations><tied type="stop" /></notations></note><direction><direction-type><dynamics default-x="-36" default-y="-80"><ff /></dynamics></direction-type><offset sound="yes">-107730</offset><sound dynamics="107" /></direction><direction><direction-type><dynamics default-x="-36" default-y="-80"><mf /></dynamics></direction-type><offset sound="yes">-107730</offset><sound dynamics="69" /></direction><direction><direction-type><dynamics default-x="-36" default-y="-80"><f /></dynamics></direction-type><offset sound="yes">-107730</offset><sound dynamics="88" /></direction><note dynamics="124.44"><pitch><step>D</step><alter>0</alter><octave>5</octave></pitch><duration>1260</duration><type>32nd</type><accidental>natural</accidental></note><note dynamics="88.89"><pitch><step>E</step><alter>-1</alter><octave>5</octave></pitch><duration>1260</duration><type>32nd</type><accidental>flat</accidental></note><note dynamics="106.67"><pitch><step>B</step><alter>-1</alter><octave>4</octave></pitch><duration>1260</duration><type>32nd</type><accidental>flat</accidental></note><note dynamics="106.67"><pitch><step>G</step><alter>0</alter><octave>5</octave></pitch><duration>1260</duration><type>32nd</type><accidental>natural</accidental></note><note dynamics="88.89"><pitch><step>D</step><alter>0</alter><octave>5</octave></pitch><duration>1260</duration><tie type="stop" /><type>32nd</type><notations><tied type="stop" /></notations></note></measure><!--========================= Measure 30 =========================--><measure number="30" implicit="no"><harmony><root><root-step>D</root-step></root><kind>minor-seventh</kind></harmony><note><rest /><duration>8820</duration><type>eighth</type><dot /><dot /></note><direction><direction-type><dynamics default-x="-36" default-y="-80"><mp /></dynamics></direction-type><sound dynamics="57" /></direction><direction><direction-type><dynamics default-x="-36" default-y="-80"><f /></dynamics></direction-type><sound dynamics="88" /></direction><direction><direction-type><dynamics default-x="-36" default-y="-80"><mf /></dynamics></direction-type><sound dynamics="69" /></direction><note dynamics="71.11"><pitch><step>G</step><alter>0</alter><octave>5</octave></pitch><duration>5040</duration><type>eighth</type><accidental>natural</accidental></note><note dynamics="71.11"><pitch><step>D</step><alter>0</alter><octave>5</octave></pitch><duration>7560</duration><type>eighth</type><dot /><accidental>natural</accidental></note><note dynamics="106.67"><pitch><step>C</step><alter>0</alter><octave>5</octave></pitch><duration>20160</duration><tie type="start" /><type>half</type><accidental>natural</accidental><notations><tied type="start" /></notations></note><note dynamics="88.89"><pitch><step>A</step><alter>0</alter><octave>4</octave></pitch><duration>20160</duration><tie type="start" /><type>half</type><accidental>natural</accidental><notations><tied type="start" /></notations></note><note dynamics="88.89"><pitch><step>F</step><alter>0</alter><octave>5</octave></pitch><duration>20160</duration><tie type="start" /><type>half</type><accidental>natural</accidental><notations><tied type="start" /></notations></note><direction><direction-type><dynamics default-x="-36" default-y="-80"><mp /></dynamics></direction-type><offset sound="yes">-68040</offset><sound dynamics="57" /></direction><note dynamics="71.11"><pitch><step>D</step><alter>0</alter><octave>5</octave></pitch><duration>20160</duration><tie type="start" /><type>half</type><accidental>natural</accidental><notations><tied type="start" /></notations></note><note dynamics="106.67"><pitch><step>C</step><alter>0</alter><octave>5</octave></pitch><duration>10080</duration><tie type="stop" /><tie type="start" /><type>quarter</type><notations><tied type="stop" /><tied type="start" /></notations></note><note dynamics="88.89"><pitch><step>A</step><alter>0</alter><octave>4</octave></pitch><duration>10080</duration><tie type="stop" /><tie type="start" /><type>quarter</type><notations><tied type="stop" /><tied type="start" /></notations></note><note dynamics="88.89"><pitch><step>F</step><alter>0</alter><octave>5</octave></pitch><duration>10080</duration><tie type="stop" /><tie type="start" /><type>quarter</type><notations><tied type="stop" /><tied type="start" /></notations></note><note dynamics="71.11"><pitch><step>D</step><alter>0</alter><octave>5</octave></pitch><duration>5040</duration><tie type="stop" /><tie type="start" /><type>eighth</type><notations><tied type="stop" /><tied type="start" /></notations></note><note dynamics="106.67"><pitch><step>C</step><alter>0</alter><octave>5</octave></pitch><duration>1260</duration><tie type="stop" /><type>32nd</type><notations><tied type="stop" /></notations></note><note dynamics="88.89"><pitch><step>A</step><alter>0</alter><octave>4</octave></pitch><duration>1260</duration><tie type="stop" /><type>32nd</type><notations><tied type="stop" /></notations></note><note dynamics="88.89"><pitch><step>F</step><alter>0</alter><octave>5</octave></pitch><duration>1260</duration><tie type="stop" /><type>32nd</type><notations><tied type="stop" /></notations></note><note dynamics="71.11"><pitch><step>D</step><alter>0</alter><octave>5</octave></pitch><duration>1260</duration><tie type="stop" /><type>32nd</type><notations><tied type="stop" /></notations></note></measure></part><!--=========================== Part 2 ===========================--><part id="P97f68f7b998db4c198495323324cba0b"><!--========================= Measure 1 ==========================--><measure number="1" implicit="no"><attributes><divisions>10080</divisions><key><fifths>1</fifths><mode>major</mode></key><time><beats>4</beats><beat-type>4</beat-type></time><clef><sign>F</sign><line>4</line></clef></attributes><direction><direction-type><dynamics default-x="-36" default-y="-80"><f /></dynamics></direction-type><sound dynamics="88" /></direction><note dynamics="106.67"><pitch><step>B</step><alter>-1</alter><octave>1</octave></pitch><duration>40320</duration><type>whole</type><accidental>flat</accidental></note></measure><!--========================= Measure 2 ==========================--><measure number="2" implicit="no" /><!--========================= Measure 3 ==========================--><measure number="3" implicit="no" /><!--========================= Measure 4 ==========================--><measure number="4" implicit="no"><harmony><root><root-step>D</root-step><root-alter>1</root-alter></root><kind>major</kind></harmony><note><rest /><duration>4410</duration><type>16th</type><dot /><dot /></note><direction><direction-type><dynamics default-x="-36" default-y="-80"><mf /></dynamics></direction-type><sound dynamics="69" /></direction><note dynamics="88.89"><pitch><step>G</step><alter>0</alter><octave>1</octave></pitch><duration>30240</duration><type>half</type><dot /><accidental>natural</accidental></note><note dynamics="88.89"><pitch><step>B</step><alter>-1</alter><octave>1</octave></pitch><duration>20160</duration><tie type="start" /><type>half</type><accidental>flat</accidental><notations><tied type="start" /></notations></note><note dynamics="88.89"><pitch><step>A</step><alter>0</alter><octave>1</octave></pitch><duration>15120</duration><type>quarter</type><dot /><accidental>natural</accidental></note><direction><direction-type><dynamics default-x="-36" default-y="-80"><f /></dynamics></direction-type><offset sound="yes">-39690</offset><sound dynamics="88" /></direction><note dynamics="106.67"><pitch><step>A</step><alter>0</alter><octave>1</octave></pitch><duration>10080</duration><type>quarter</type><accidental>natural</accidental></note><note dynamics="88.89"><pitch><step>B</step><alter>-1</alter><octave>1</octave></pitch><duration>5040</duration><tie type="stop" /><tie type="start" /><type>eighth</type><notations><tied type="stop" /><tied type="start" /></notations></note><note dynamics="88.89"><pitch><step>B</step><alter>-1</alter><octave>1</octave></pitch><duration>630</duration><tie type="stop" /><type>64th</type><notations><tied type="stop" /></notations></note></measure><!--========================= Measure 5 ==========================--><measure number="5" implicit="no"><harmony><root><root-step>D</root-step><root-alter>1</root-alter></root><kind>major</kind></harmony><note><rest /><duration>5040</duration><type>eighth</type></note><note><rest /><duration>630</duration><type>64th</type></note><direction><direction-type><dynamics default-x="-36" default-y="-80"><mf /></dynamics></direction-type><sound dynamics="69" /></direction><note dynamics="88.89"><pitch><step>G</step><alter>0</alter><octave>2</octave></pitch><duration>30240</duration><type>half</type><dot /><accidental>natural</accidental></note><note dynamics="88.89"><pitch><step>B</step><alter>-1</alter><octave>2</octave></pitch><duration>20160</duration><tie type="start" /><type>half</type><accidental>flat</accidental><notations><tied type="start" /></notations></note><note dynamics="88.89"><pitch><step>A</step><alter>0</alter><octave>2</octave></pitch><duration>10080</duration><tie type="start" /><type>quarter</type><accidental>natural</accidental><notations><tied type="start" /></notations></note><direction><direction-type><dynamics default-x="-36" default-y="-80"><f /></dynamics></direction-type><offset sound="yes">-35280</offset><sound dynamics="88" /></direction><note dynamics="106.67"><pitch><step>E</step><alter>-1</alter><octave>2</octave></pitch><duration>9450</duration><type>eighth</type><dot /><dot /><dot /><accidental>flat</accidental></note><note dynamics="88.89"><pitch><step>B</step><alter>-1</alter><octave>2</octave></pitch><duration>4410</duration><tie type="stop" /><type>16th</type><dot /><dot /><notations><tied type="stop" /></notations></note><note dynamics="88.89"><pitch><step>A</step><alter>0</alter><octave>2</octave></pitch><duration>4410</duration><tie type="stop" /><type>16th</type><dot /><dot /><notations><tied type="stop" /></notations></note></measure><!--========================= Measure 6 ==========================--><measure number="6" implicit="no"><harmony><root><root-step>D</root-step><root-alter>1</root-alter></root><kind>major-seventh</kind></harmony><note><rest /><duration>5040</duration><type>eighth</type></note><note><rest /><duration>1260</duration><type>32nd</type></note><note dynamics="106.67"><pitch><step>G</step><alter>0</alter><octave>1</octave></pitch><duration>30240</duration><type>half</type><dot /><accidental>natural</accidental></note><note dynamics="106.67"><pitch><step>F</step><alter>0</alter><octave>1</octave></pitch><duration>20160</duration><tie type="start" /><type>half</type><accidental>natural</accidental><notations><tied type="start" /></notations></note><note dynamics="106.67"><pitch><step>E</step><alter>0</alter><octave>1</octave></pitch><duration>8820</duration><type>eighth</type><dot /><dot /><accidental>natural</accidental></note><note dynamics="106.67"><pitch><step>F</step><alter>0</alter><octave>1</octave></pitch><duration>3780</duration><tie type="stop" /><type>16th</type><dot /><notations><tied type="stop" /></notations></note></measure><!--========================= Measure 7 ==========================--><measure number="7" implicit="no"><harmony><root><root-step>D</root-step><root-alter>1</root-alter></root><kind>major-seventh</kind></harmony><note><rest /><duration>5040</duration><type>eighth</type></note><note><rest /><duration>1890</duration><type>32nd</type><dot /></note><note dynamics="106.67"><pitch><step>A</step><alter>0</alter><octave>1</octave></pitch><duration>30240</duration><type>half</type><dot /><accidental>natural</accidental></note><note dynamics="106.67"><pitch><step>E</step><alter>0</alter><octave>1</octave></pitch><duration>20160</duration><tie type="start" /><type>half</type><accidental>natural</accidental><notations><tied type="start" /></notations></note><note dynamics="106.67"><pitch><step>G</step><alter>0</alter><octave>2</octave></pitch><duration>10080</duration><tie type="start" /><type>quarter</type><accidental>natural</accidental><notations><tied type="start" /></notations></note><direction><direction-type><dynamics default-x="-36" default-y="-80"><mf /></dynamics></direction-type><offset sound="yes">-34650</offset><sound dynamics="69" /></direction><note dynamics="88.89"><pitch><step>B</step><alter>-1</alter><octave>2</octave></pitch><duration>7560</duration><type>eighth</type><dot /><accidental>flat</accidental></note><note dynamics="106.67"><pitch><step>E</step><alter>0</alter><octave>1</octave></pitch><duration>2520</duration><tie type="stop" /><tie type="start" /><type>16th</type><notations><tied type="stop" /><tied type="start" /></notations></note><note dynamics="106.67"><pitch><step>G</step><alter>0</alter><octave>2</octave></pitch><duration>2520</duration><tie type="stop" /><type>16th</type><notations><tied type="stop" /></notations></note><note dynamics="106.67"><pitch><step>E</step><alter>0</alter><octave>1</octave></pitch><duration>630</duration><tie type="stop" /><type>64th</type><notations><tied type="stop" /></notations></note></measure><!--========================= Measure 8 ==========================--><measure number="8" implicit="no"><harmony><root><root-step>D</root-step><root-alter>1</root-alter></root><kind>major-seventh</kind></harmony><note><rest /><duration>2520</duration><type>16th</type></note><direction><direction-type><dynamics default-x="-36" default-y="-80"><f /></dynamics></direction-type><sound dynamics="88" /></direction><note dynamics="106.67"><pitch><step>A</step><alter>0</alter><octave>2</octave></pitch><duration>30240</duration><type>half</type><dot /><accidental>natural</accidental></note><note dynamics="106.67"><pitch><step>E</step><alter>-1</alter><octave>3</octave></pitch><duration>20160</duration><tie type="start" /><type>half</type><accidental>flat</accidental><notations><tied type="start" /></notations></note><direction><direction-type><dynamics default-x="-36" default-y="-80"><mf /></dynamics></direction-type><offset sound="yes">-19530</offset><sound dynamics="69" /></direction><note dynamics="88.89"><pitch><step>D</step><alter>0</alter><octave>3</octave></pitch><duration>5040</duration><tie type="start" /><type>eighth</type><accidental>natural</accidental><notations><tied type="start" /></notations></note><note dynamics="106.67"><pitch><step>E</step><alter>-1</alter><octave>3</octave></pitch><duration>1890</duration><tie type="stop" /><type>32nd</type><dot /><notations><tied type="stop" /></notations></note><note dynamics="88.89"><pitch><step>D</step><alter>0</alter><octave>3</octave></pitch><duration>1890</duration><tie type="stop" /><type>32nd</type><dot /><notations><tied type="stop" /></notations></note></measure><!--========================= Measure 9 ==========================--><measure number="9" implicit="no"><harmony><root><root-step>D</root-step><root-alter>1</root-alter></root><kind>major-seventh</kind></harmony><note><rest /><duration>2520</duration><type>16th</type></note><note><rest /><duration>630</duration><type>64th</type></note><note dynamics="88.89"><pitch><step>G</step><alter>0</alter><octave>1</octave></pitch><duration>30240</duration><type>half</type><dot /><accidental>natural</accidental></note><note dynamics="88.89"><pitch><step>A</step><alter>0</alter><octave>1</octave></pitch><duration>15120</duration><type>quarter</type><dot /><accidental>natural</accidental></note><direction><direction-type><dynamics default-x="-36" default-y="-80"><f /></dynamics></direction-type><offset sound="yes">-19530</offset><sound dynamics="88" /></direction><note dynamics="106.67"><pitch><step>B</step><alter>-1</alter><octave>1</octave></pitch><duration>10080</duration><tie type="start" /><type>quarter</type><accidental>flat</accidental><notations><tied type="start" /></notations></note><direction><direction-type><dynamics default-x="-36" default-y="-80"><mf /></dynamics></direction-type><offset sound="yes">-24570</offset><sound dynamics="69" /></direction><note dynamics="88.89"><pitch><step>G</step><alter>0</alter><octave>1</octave></pitch><duration>5040</duration><tie type="start" /><type>eighth</type><accidental>natural</accidental><notations><tied type="start" /></notations></note><note dynamics="106.67"><pitch><step>B</step><alter>-1</alter><octave>1</octave></pitch><duration>1260</duration><tie type="stop" /><type>32nd</type><notations><tied type="stop" /></notations></note><note dynamics="88.89"><pitch><step>G</step><alter>0</alter><octave>1</octave></pitch><duration>1260</duration><tie type="stop" /><type>32nd</type><notations><tied type="stop" /></notations></note></measure><!--========================= Measure 10 =========================--><measure number="10" implicit="no"><harmony><root><root-step>D</root-step><root-alter>1</root-alter></root><kind>major-seventh</kind></harmony><note><rest /><duration>3780</duration><type>16th</type><dot /></note><note dynamics="88.89"><pitch><step>G</step><alter>1</alter><octave>1</octave></pitch><duration>30240</duration><type>half</type><dot /><accidental>sharp</accidental></note><note dynamics="88.89"><pitch><step>F</step><alter>0</alter><octave>1</octave></pitch><duration>20160</duration><tie type="start" /><type>half</type><accidental>natural</accidental><notations><tied type="start" /></notations></note><direction><direction-type><dynamics default-x="-36" default-y="-80"><f /></dynamics></direction-type><offset sound="yes">-24570</offset><sound dynamics="88" /></direction><note dynamics="106.67"><pitch><step>D</step><alter>0</alter><octave>3</octave></pitch><duration>10080</duration><tie type="start" /><type>quarter</type><accidental>natural</accidental><notations><tied type="start" /></notations></note><direction><direction-type><dynamics default-x="-36" default-y="-80"><mf /></dynamics></direction-type><offset sound="yes">-29610</offset><sound dynamics="69" /></direction><note dynamics="88.89"><pitch><step>G</step><alter>0</alter><octave>2</octave></pitch><duration>5040</duration><tie type="start" /><type>eighth</type><accidental>natural</accidental><notations><tied type="start" /></notations></note><note dynamics="88.89"><pitch><step>F</step><alter>0</alter><octave>1</octave></pitch><duration>1260</duration><tie type="stop" /><type>32nd</type><notations><tied type="stop" /></notations></note><note dynamics="106.67"><pitch><step>D</step><alter>0</alter><octave>3</octave></pitch><duration>630</duration><tie type="stop" /><type>64th</type><notations><tied type="stop" /></notations></note><note dynamics="88.89"><pitch><step>G</step><alter>0</alter><octave>2</octave></pitch><duration>630</duration><tie type="stop" /><type>64th</type><notations><tied type="stop" /></notations></note></measure><!--========================= Measure 11 =========================--><measure number="11" implicit="no"><harmony><root><root-step>D</root-step><root-alter>1</root-alter></root><kind>major-seventh</kind></harmony><note><rest /><duration>4410</duration><type>16th</type><dot /><dot /></note><note dynamics="88.89"><pitch><step>E</step><alter>0</alter><octave>1</octave></pitch><duration>30240</duration><type>half</type><dot /><accidental>natural</accidental></note><direction><direction-type><dynamics default-x="-36" default-y="-80"><f /></dynamics></direction-type><offset sound="yes">-15120</offset><sound dynamics="88" /></direction><note dynamics="106.67"><pitch><step>A</step><alter>0</alter><octave>1</octave></pitch><duration>20160</duration><tie type="start" /><type>half</type><accidental>natural</accidental><notations><tied type="start" /></notations></note><direction><direction-type><dynamics default-x="-36" default-y="-80"><mf /></dynamics></direction-type><offset sound="yes">-25200</offset><sound dynamics="69" /></direction><note dynamics="88.89"><pitch><step>G</step><alter>0</alter><octave>2</octave></pitch><duration>10080</duration><tie type="start" /><type>quarter</type><accidental>natural</accidental><notations><tied type="start" /></notations></note><note dynamics="88.89"><pitch><step>A</step><alter>0</alter><octave>2</octave></pitch><duration>5040</duration><type>eighth</type><accidental>natural</accidental></note><note dynamics="106.67"><pitch><step>A</step><alter>0</alter><octave>1</octave></pitch><duration>630</duration><tie type="stop" /><type>64th</type><notations><tied type="stop" /></notations></note><note dynamics="88.89"><pitch><step>G</step><alter>0</alter><octave>2</octave></pitch><duration>630</duration><tie type="stop" /><type>64th</type><notations><tied type="stop" /></notations></note></measure><!--========================= Measure 12 =========================--><measure number="12" implicit="no"><harmony><root><root-step>D</root-step><root-alter>1</root-alter></root><kind>major-seventh</kind></harmony><note><rest /><duration>5040</duration><type>eighth</type></note><direction><direction-type><dynamics default-x="-36" default-y="-80"><f /></dynamics></direction-type><sound dynamics="88" /></direction><note dynamics="106.67"><pitch><step>G</step><alter>0</alter><octave>1</octave></pitch><duration>30240</duration><type>half</type><dot /><accidental>natural</accidental></note><note dynamics="106.67"><pitch><step>F</step><alter>0</alter><octave>1</octave></pitch><duration>20160</duration><tie type="start" /><type>half</type><accidental>natural</accidental><notations><tied type="start" /></notations></note><direction><direction-type><dynamics default-x="-36" default-y="-80"><mf /></dynamics></direction-type><offset sound="yes">-29610</offset><sound dynamics="69" /></direction><note dynamics="88.89"><pitch><step>D</step><alter>0</alter><octave>3</octave></pitch><duration>10080</duration><tie type="start" /><type>quarter</type><accidental>natural</accidental><notations><tied type="start" /></notations></note><note dynamics="88.89"><pitch><step>B</step><alter>-1</alter><octave>2</octave></pitch><duration>9450</duration><type>eighth</type><dot /><dot /><dot /><accidental>flat</accidental></note><direction><direction-type><dynamics default-x="-36" default-y="-80"><f /></dynamics></direction-type><offset sound="yes">-39060</offset><sound dynamics="88" /></direction><note dynamics="106.67"><pitch><step>E</step><alter>-1</alter><octave>3</octave></pitch><duration>4410</duration><type>16th</type><dot /><dot /><accidental>flat</accidental></note><note dynamics="106.67"><pitch><step>F</step><alter>0</alter><octave>1</octave></pitch><duration>4410</duration><tie type="stop" /><type>16th</type><dot /><dot /><notations><tied type="stop" /></notations></note><note dynamics="88.89"><pitch><step>D</step><alter>0</alter><octave>3</octave></pitch><duration>4410</duration><tie type="stop" /><type>16th</type><dot /><dot /><notations><tied type="stop" /></notations></note></measure><!--========================= Measure 13 =========================--><measure number="13" implicit="no"><harmony><root><root-step>D</root-step><root-alter>1</root-alter></root><kind>major-seventh</kind></harmony><note><rest /><duration>5040</duration><type>eighth</type></note><note><rest /><duration>630</duration><type>64th</type></note><direction><direction-type><dynamics default-x="-36" default-y="-80"><mf /></dynamics></direction-type><sound dynamics="69" /></direction><note dynamics="88.89"><pitch><step>A</step><alter>0</alter><octave>1</octave></pitch><duration>30240</duration><type>half</type><dot /><accidental>natural</accidental></note><direction><direction-type><dynamics default-x="-36" default-y="-80"><f /></dynamics></direction-type><offset sound="yes">-20160</offset><sound dynamics="88" /></direction><note dynamics="106.67"><pitch><step>G</step><alter>0</alter><octave>1</octave></pitch><duration>20160</duration><tie type="start" /><type>half</type><accidental>natural</accidental><notations><tied type="start" /></notations></note><note dynamics="106.67"><pitch><step>F</step><alter>0</alter><octave>1</octave></pitch><duration>10080</duration><tie type="start" /><type>quarter</type><accidental>natural</accidental><notations><tied type="start" /></notations></note><note dynamics="106.67"><pitch><step>G</step><alter>0</alter><octave>1</octave></pitch><duration>4410</duration><tie type="stop" /><type>16th</type><dot /><dot /><notations><tied type="stop" /></notations></note><note dynamics="106.67"><pitch><step>F</step><alter>0</alter><octave>1</octave></pitch><duration>3780</duration><tie type="stop" /><type>16th</type><dot /><notations><tied type="stop" /></notations></note></measure><!--========================= Measure 14 =========================--><measure number="14" implicit="no"><harmony><root><root-step>D</root-step><root-alter>1</root-alter></root><kind>major-seventh</kind></harmony><note><rest /><duration>1260</duration><type>32nd</type></note><direction><direction-type><dynamics default-x="-36" default-y="-80"><mf /></dynamics></direction-type><sound dynamics="69" /></direction><note dynamics="88.89"><pitch><step>G</step><alter>0</alter><octave>1</octave></pitch><duration>30240</duration><type>half</type><dot /><accidental>natural</accidental></note><direction><direction-type><dynamics default-x="-36" default-y="-80"><f /></dynamics></direction-type><offset sound="yes">-24570</offset><sound dynamics="88" /></direction><note dynamics="106.67"><pitch><step>G</step><alter>0</alter><octave>1</octave></pitch><duration>30240</duration><type>half</type><dot /><accidental>natural</accidental></note><note dynamics="106.67"><pitch><step>E</step><alter>0</alter><octave>1</octave></pitch><duration>20160</duration><tie type="start" /><type>half</type><accidental>natural</accidental><notations><tied type="start" /></notations></note><direction><direction-type><dynamics default-x="-36" default-y="-80"><mf /></dynamics></direction-type><offset sound="yes">-54810</offset><sound dynamics="69" /></direction><note dynamics="88.89"><pitch><step>B</step><alter>-1</alter><octave>2</octave></pitch><duration>10080</duration><tie type="start" /><type>quarter</type><accidental>flat</accidental><notations><tied type="start" /></notations></note><note dynamics="88.89"><pitch><step>D</step><alter>0</alter><octave>3</octave></pitch><duration>5040</duration><tie type="start" /><type>eighth</type><accidental>natural</accidental><notations><tied type="start" /></notations></note><direction><direction-type><dynamics default-x="-36" default-y="-80"><f /></dynamics></direction-type><offset sound="yes">-59850</offset><sound dynamics="88" /></direction><note dynamics="106.67"><pitch><step>E</step><alter>0</alter><octave>1</octave></pitch><duration>2520</duration><tie type="stop" /><tie type="start" /><type>16th</type><notations><tied type="stop" /><tied type="start" /></notations></note><note dynamics="88.89"><pitch><step>B</step><alter>-1</alter><octave>2</octave></pitch><duration>2520</duration><tie type="stop" /><tie type="start" /><type>16th</type><notations><tied type="stop" /><tied type="start" /></notations></note><note dynamics="88.89"><pitch><step>D</step><alter>0</alter><octave>3</octave></pitch><duration>2520</duration><tie type="stop" /><tie type="start" /><type>16th</type><notations><tied type="stop" /><tied type="start" /></notations></note><note dynamics="106.67"><pitch><step>G</step><alter>0</alter><octave>2</octave></pitch><duration>2520</duration><tie type="start" /><type>16th</type><accidental>natural</accidental><notations><tied type="start" /></notations></note><note dynamics="106.67"><pitch><step>E</step><alter>0</alter><octave>1</octave></pitch><duration>630</duration><tie type="stop" /><type>64th</type><notations><tied type="stop" /></notations></note><note dynamics="88.89"><pitch><step>B</step><alter>-1</alter><octave>2</octave></pitch><duration>630</duration><tie type="stop" /><type>64th</type><notations><tied type="stop" /></notations></note><note dynamics="88.89"><pitch><step>D</step><alter>0</alter><octave>3</octave></pitch><duration>630</duration><tie type="stop" /><type>64th</type><notations><tied type="stop" /></notations></note><note dynamics="106.67"><pitch><step>G</step><alter>0</alter><octave>2</octave></pitch><duration>630</duration><tie type="stop" /><type>64th</type><notations><tied type="stop" /></notations></note></measure><!--========================= Measure 15 =========================--><measure number="15" implicit="no"><harmony><root><root-step>C</root-step></root><kind>minor-seventh</kind></harmony><note><rest /><duration>1890</duration><type>32nd</type><dot /></note><direction><direction-type><dynamics default-x="-36" default-y="-80"><mf /></dynamics></direction-type><sound dynamics="69" /></direction><note dynamics="88.89"><pitch><step>C</step><alter>0</alter><octave>3</octave></pitch><duration>30240</duration><type>half</type><dot /><accidental>natural</accidental></note><note dynamics="88.89"><pitch><step>G</step><alter>0</alter><octave>1</octave></pitch><duration>30240</duration><type>half</type><dot /><accidental>natural</accidental></note><note dynamics="88.89"><pitch><step>F</step><alter>0</alter><octave>1</octave></pitch><duration>20160</duration><tie type="start" /><type>half</type><accidental>natural</accidental><notations><tied type="start" /></notations></note><note dynamics="88.89"><pitch><step>B</step><alter>-1</alter><octave>2</octave></pitch><duration>10080</duration><tie type="start" /><type>quarter</type><accidental>flat</accidental><notations><tied type="start" /></notations></note><note dynamics="88.89"><pitch><step>A</step><alter>0</alter><octave>1</octave></pitch><duration>5040</duration><tie type="start" /><type>eighth</type><accidental>natural</accidental><notations><tied type="start" /></notations></note><note dynamics="88.89"><pitch><step>F</step><alter>0</alter><octave>1</octave></pitch><duration>2520</duration><tie type="stop" /><type>16th</type><notations><tied type="stop" /></notations></note><note dynamics="88.89"><pitch><step>B</step><alter>-1</alter><octave>2</octave></pitch><duration>2520</duration><tie type="stop" /><type>16th</type><notations><tied type="stop" /></notations></note><direction><direction-type><dynamics default-x="-36" default-y="-80"><f /></dynamics></direction-type><offset sound="yes">-64260</offset><sound dynamics="88" /></direction><note dynamics="106.67"><pitch><step>A</step><alter>0</alter><octave>1</octave></pitch><duration>1890</duration><type>32nd</type><dot /><accidental>natural</accidental></note><note dynamics="88.89"><pitch><step>A</step><alter>0</alter><octave>1</octave></pitch><duration>1890</duration><tie type="stop" /><type>32nd</type><dot /><notations><tied type="stop" /></notations></note></measure><!--========================= Measure 16 =========================--><measure number="16" implicit="no"><harmony><root><root-step>D</root-step><root-alter>1</root-alter></root><kind>major-seventh</kind></harmony><note><rest /><duration>5040</duration><type>eighth</type></note><note><rest /><duration>2520</duration><type>16th</type></note><note><rest /><duration>630</duration><type>64th</type></note><note dynamics="106.67"><pitch><step>A</step><alter>0</alter><octave>2</octave></pitch><duration>15120</duration><type>quarter</type><dot /><accidental>natural</accidental></note><note dynamics="106.67"><pitch><step>D</step><alter>0</alter><octave>3</octave></pitch><duration>20160</duration><tie type="start" /><type>half</type><accidental>natural</accidental><notations><tied type="start" /></notations></note><direction><direction-type><dynamics default-x="-36" default-y="-80"><mf /></dynamics></direction-type><offset sound="yes">-14490</offset><sound dynamics="69" /></direction><note dynamics="88.89"><pitch><step>G</step><alter>0</alter><octave>1</octave></pitch><duration>10080</duration><tie type="start" /><type>quarter</type><accidental>natural</accidental><notations><tied type="start" /></notations></note><note dynamics="106.67"><pitch><step>D</step><alter>0</alter><octave>3</octave></pitch><duration>5040</duration><tie type="stop" /><tie type="start" /><type>eighth</type><notations><tied type="stop" /><tied type="start" /></notations></note><note dynamics="106.67"><pitch><step>D</step><alter>0</alter><octave>3</octave></pitch><duration>1890</duration><tie type="stop" /><type>32nd</type><dot /><notations><tied type="stop" /></notations></note><note dynamics="88.89"><pitch><step>B</step><alter>-1</alter><octave>2</octave></pitch><duration>1260</duration><type>32nd</type><accidental>flat</accidental></note><note dynamics="88.89"><pitch><step>G</step><alter>0</alter><octave>1</octave></pitch><duration>1260</duration><tie type="stop" /><type>32nd</type><notations><tied type="stop" /></notations></note></measure><!--========================= Measure 17 =========================--><measure number="17" implicit="no"><harmony><root><root-step>D</root-step><root-alter>1</root-alter></root><kind>major-seventh</kind></harmony><note><rest /><duration>8820</duration><type>eighth</type><dot /><dot /></note><note dynamics="88.89"><pitch><step>A</step><alter>0</alter><octave>1</octave></pitch><duration>30240</duration><type>half</type><dot /><accidental>natural</accidental></note><direction><direction-type><dynamics default-x="-36" default-y="-80"><f /></dynamics></direction-type><offset sound="yes">-20160</offset><sound dynamics="88" /></direction><note dynamics="106.67"><pitch><step>G</step><alter>0</alter><octave>1</octave></pitch><duration>20160</duration><tie type="start" /><type>half</type><accidental>natural</accidental><notations><tied type="start" /></notations></note><direction><direction-type><dynamics default-x="-36" default-y="-80"><mf /></dynamics></direction-type><offset sound="yes">-25200</offset><sound dynamics="69" /></direction><note dynamics="88.89"><pitch><step>F</step><alter>0</alter><octave>1</octave></pitch><duration>5040</duration><tie type="start" /><type>eighth</type><accidental>natural</accidental><notations><tied type="start" /></notations></note><note dynamics="106.67"><pitch><step>G</step><alter>0</alter><octave>1</octave></pitch><duration>1260</duration><tie type="stop" /><type>32nd</type><notations><tied type="stop" /></notations></note><note dynamics="88.89"><pitch><step>F</step><alter>0</alter><octave>1</octave></pitch><duration>1260</duration><tie type="stop" /><type>32nd</type><notations><tied type="stop" /></notations></note></measure><!--========================= Measure 18 =========================--><measure number="18" implicit="no"><harmony><root><root-step>D</root-step><root-alter>1</root-alter></root><kind>major-seventh</kind></harmony><note><rest /><duration>3780</duration><type>16th</type><dot /></note><note dynamics="88.89"><pitch><step>E</step><alter>0</alter><octave>1</octave></pitch><duration>20160</duration><tie type="start" /><type>half</type><accidental>natural</accidental><notations><tied type="start" /></notations></note><note dynamics="88.89"><pitch><step>G</step><alter>0</alter><octave>2</octave></pitch><duration>20160</duration><tie type="start" /><type>half</type><accidental>natural</accidental><notations><tied type="start" /></notations></note><note dynamics="88.89"><pitch><step>E</step><alter>0</alter><octave>1</octave></pitch><duration>10080</duration><tie type="stop" /><tie type="start" /><type>quarter</type><notations><tied type="stop" /><tied type="start" /></notations></note><direction><direction-type><dynamics default-x="-36" default-y="-80"><f /></dynamics></direction-type><offset sound="yes">-20160</offset><sound dynamics="88" /></direction><note dynamics="88.89"><pitch><step>E</step><alter>0</alter><octave>1</octave></pitch><duration>5040</duration><tie type="stop" /><tie type="start" /><type>eighth</type><notations><tied type="stop" /><tied type="start" /></notations></note><note dynamics="106.67"><pitch><step>D</step><alter>0</alter><octave>3</octave></pitch><duration>5040</duration><tie type="start" /><type>eighth</type><accidental>natural</accidental><notations><tied type="start" /></notations></note><note dynamics="88.89"><pitch><step>E</step><alter>0</alter><octave>1</octave></pitch><duration>1260</duration><tie type="stop" /><type>32nd</type><notations><tied type="stop" /></notations></note><note dynamics="88.89"><pitch><step>G</step><alter>0</alter><octave>2</octave></pitch><duration>1260</duration><tie type="stop" /><type>32nd</type><notations><tied type="stop" /></notations></note><note dynamics="106.67"><pitch><step>D</step><alter>0</alter><octave>3</octave></pitch><duration>1260</duration><tie type="stop" /><type>32nd</type><notations><tied type="stop" /></notations></note></measure><!--========================= Measure 19 =========================--><measure number="19" implicit="no"><harmony><root><root-step>D</root-step></root><kind>major</kind></harmony><note><rest /><duration>4410</duration><type>16th</type><dot /><dot /></note><direction><direction-type><dynamics default-x="-36" default-y="-80"><mf /></dynamics></direction-type><sound dynamics="69" /></direction><note dynamics="88.89"><pitch><step>A</step><alter>0</alter><octave>2</octave></pitch><duration>20160</duration><tie type="start" /><type>half</type><accidental>natural</accidental><notations><tied type="start" /></notations></note><note dynamics="88.89"><pitch><step>D</step><alter>0</alter><octave>3</octave></pitch><duration>20160</duration><tie type="start" /><type>half</type><accidental>natural</accidental><notations><tied type="start" /></notations></note><note dynamics="88.89"><pitch><step>A</step><alter>0</alter><octave>2</octave></pitch><duration>10080</duration><tie type="stop" /><tie type="start" /><type>quarter</type><notations><tied type="stop" /><tied type="start" /></notations></note><direction><direction-type><dynamics default-x="-36" default-y="-80"><f /></dynamics></direction-type><offset sound="yes">-24570</offset><sound dynamics="88" /></direction><note dynamics="106.67"><pitch><step>G</step><alter>0</alter><octave>1</octave></pitch><duration>10080</duration><type>quarter</type><accidental>natural</accidental></note><note dynamics="88.89"><pitch><step>A</step><alter>0</alter><octave>2</octave></pitch><duration>5040</duration><tie type="stop" /><tie type="start" /><type>eighth</type><notations><tied type="stop" /><tied type="start" /></notations></note><note dynamics="88.89"><pitch><step>D</step><alter>0</alter><octave>3</octave></pitch><duration>5040</duration><tie type="stop" /><tie type="start" /><type>eighth</type><notations><tied type="stop" /><tied type="start" /></notations></note><note dynamics="88.89"><pitch><step>A</step><alter>0</alter><octave>2</octave></pitch><duration>630</duration><tie type="stop" /><type>64th</type><notations><tied type="stop" /></notations></note><note dynamics="88.89"><pitch><step>D</step><alter>0</alter><octave>3</octave></pitch><duration>630</duration><tie type="stop" /><type>64th</type><notations><tied type="stop" /></notations></note></measure><!--========================= Measure 20 =========================--><measure number="20" implicit="no"><harmony><root><root-step>G</root-step><root-alter>1</root-alter></root><kind>major-seventh</kind></harmony><note dynamics="106.67"><pitch><step>G</step><alter>1</alter><octave>1</octave></pitch><duration>40320</duration><type>whole</type><accidental>sharp</accidental></note><note dynamics="106.67"><pitch><step>G</step><alter>1</alter><octave>1</octave></pitch><duration>20160</duration><tie type="start" /><type>half</type><accidental>sharp</accidental><notations><tied type="start" /></notations></note><note dynamics="106.67"><pitch><step>G</step><alter>1</alter><octave>1</octave></pitch><duration>5040</duration><tie type="stop" /><type>eighth</type><notations><tied type="stop" /></notations></note><direction><direction-type><dynamics default-x="-36" default-y="-80"><mf /></dynamics></direction-type><offset sound="yes">-29610</offset><sound dynamics="69" /></direction><note dynamics="88.89"><pitch><step>A</step><alter>0</alter><octave>1</octave></pitch><duration>4410</duration><type>16th</type><dot /><dot /><accidental>natural</accidental></note></measure><!--========================= Measure 21 =========================--><measure number="21" implicit="no"><harmony><root><root-step>A</root-step></root><kind>minor-seventh</kind></harmony><note><rest /><duration>10080</duration><type>quarter</type></note><note><rest /><duration>630</duration><type>64th</type></note><direction><direction-type><dynamics default-x="-36" default-y="-80"><f /></dynamics></direction-type><sound dynamics="88" /></direction><note dynamics="106.67"><pitch><step>E</step><alter>0</alter><octave>1</octave></pitch><duration>20160</duration><tie type="start" /><type>half</type><accidental>natural</accidental><notations><tied type="start" /></notations></note><note dynamics="106.67"><pitch><step>A</step><alter>0</alter><octave>2</octave></pitch><duration>10080</duration><tie type="start" /><type>quarter</type><accidental>natural</accidental><notations><tied type="start" /></notations></note><note dynamics="106.67"><pitch><step>E</step><alter>0</alter><octave>1</octave></pitch><duration>9450</duration><tie type="stop" /><type>eighth</type><dot /><dot /><dot /><notations><tied type="stop" /></notations></note><note dynamics="106.67"><pitch><step>A</step><alter>0</alter><octave>2</octave></pitch><duration>4410</duration><tie type="stop" /><type>16th</type><dot /><dot /><notations><tied type="stop" /></notations></note><note dynamics="106.67"><pitch><step>G</step><alter>0</alter><octave>2</octave></pitch><duration>3780</duration><type>16th</type><dot /><accidental>natural</accidental></note></measure><!--========================= Measure 22 =========================--><measure number="22" implicit="no"><harmony><root><root-step>D</root-step><root-alter>1</root-alter></root><kind>major-seventh</kind></harmony><note><rest /><duration>10080</duration><type>quarter</type></note><note><rest /><duration>1890</duration><type>32nd</type><dot /></note><direction><direction-type><dynamics default-x="-36" default-y="-80"><mf /></dynamics></direction-type><sound dynamics="69" /></direction><note dynamics="88.89"><pitch><step>D</step><alter>0</alter><octave>3</octave></pitch><duration>15120</duration><type>quarter</type><dot /><accidental>natural</accidental></note><direction><direction-type><dynamics default-x="-36" default-y="-80"><f /></dynamics></direction-type><offset sound="yes">-10080</offset><sound dynamics="88" /></direction><note dynamics="106.67"><pitch><step>E</step><alter>-1</alter><octave>3</octave></pitch><duration>20160</duration><tie type="start" /><type>half</type><accidental>flat</accidental><notations><tied type="start" /></notations></note><note dynamics="106.67"><pitch><step>E</step><alter>-1</alter><octave>3</octave></pitch><duration>2520</duration><tie type="stop" /><tie type="start" /><type>16th</type><notations><tied type="stop" /><tied type="start" /></notations></note><note dynamics="106.67"><pitch><step>G</step><alter>0</alter><octave>1</octave></pitch><duration>2520</duration><tie type="start" /><type>16th</type><accidental>natural</accidental><notations><tied type="start" /></notations></note><note dynamics="106.67"><pitch><step>E</step><alter>-1</alter><octave>3</octave></pitch><duration>630</duration><tie type="stop" /><type>64th</type><notations><tied type="stop" /></notations></note><note dynamics="106.67"><pitch><step>G</step><alter>0</alter><octave>1</octave></pitch><duration>630</duration><tie type="stop" /><type>64th</type><notations><tied type="stop" /></notations></note></measure><!--========================= Measure 23 =========================--><measure number="23" implicit="no"><harmony><root><root-step>G</root-step></root><kind>minor-seventh</kind></harmony><note><rest /><duration>17640</duration><type>quarter</type><dot /><dot /></note><note dynamics="106.67"><pitch><step>F</step><alter>0</alter><octave>1</octave></pitch><duration>20160</duration><tie type="start" /><type>half</type><accidental>natural</accidental><notations><tied type="start" /></notations></note><note dynamics="106.67"><pitch><step>F</step><alter>0</alter><octave>1</octave></pitch><duration>2520</duration><tie type="stop" /><type>16th</type><notations><tied type="stop" /></notations></note><note dynamics="106.67"><pitch><step>G</step><alter>0</alter><octave>1</octave></pitch><duration>1890</duration><type>32nd</type><dot /><accidental>natural</accidental></note></measure><!--========================= Measure 24 =========================--><measure number="24" implicit="no"><harmony><root><root-step>D</root-step><root-alter>1</root-alter></root><kind>major</kind></harmony><note><rest /><duration>5040</duration><type>eighth</type></note><note><rest /><duration>2520</duration><type>16th</type></note><note><rest /><duration>630</duration><type>64th</type></note><note dynamics="106.67"><pitch><step>G</step><alter>0</alter><octave>1</octave></pitch><duration>30240</duration><type>half</type><dot /><accidental>natural</accidental></note><direction><direction-type><dynamics default-x="-36" default-y="-80"><mf /></dynamics></direction-type><offset sound="yes">-20160</offset><sound dynamics="69" /></direction><note dynamics="88.89"><pitch><step>B</step><alter>-1</alter><octave>2</octave></pitch><duration>15120</duration><type>quarter</type><dot /><accidental>flat</accidental></note><note dynamics="88.89"><pitch><step>E</step><alter>-1</alter><octave>3</octave></pitch><duration>10080</duration><tie type="start" /><type>quarter</type><accidental>flat</accidental><notations><tied type="start" /></notations></note><direction><direction-type><dynamics default-x="-36" default-y="-80"><f /></dynamics></direction-type><offset sound="yes">-25200</offset><sound dynamics="88" /></direction><note dynamics="106.67"><pitch><step>G</step><alter>0</alter><octave>1</octave></pitch><duration>1890</duration><type>32nd</type><dot /><accidental>natural</accidental></note><note dynamics="88.89"><pitch><step>E</step><alter>-1</alter><octave>3</octave></pitch><duration>1890</duration><tie type="stop" /><type>32nd</type><dot /><notations><tied type="stop" /></notations></note></measure><!--========================= Measure 25 =========================--><measure number="25" implicit="no"><harmony><root><root-step>D</root-step><root-alter>1</root-alter></root><kind>major-seventh</kind></harmony><note><rest /><duration>5040</duration><type>eighth</type></note><note><rest /><duration>2520</duration><type>16th</type></note><note><rest /><duration>630</duration><type>64th</type></note><note dynamics="106.67"><pitch><step>G</step><alter>0</alter><octave>2</octave></pitch><duration>30240</duration><type>half</type><dot /><accidental>natural</accidental></note><direction><direction-type><dynamics default-x="-36" default-y="-80"><mf /></dynamics></direction-type><offset sound="yes">-20160</offset><sound dynamics="69" /></direction><note dynamics="88.89"><pitch><step>D</step><alter>0</alter><octave>3</octave></pitch><duration>15120</duration><type>quarter</type><dot /><accidental>natural</accidental></note><note dynamics="88.89"><pitch><step>E</step><alter>-1</alter><octave>3</octave></pitch><duration>10080</duration><tie type="start" /><type>quarter</type><accidental>flat</accidental><notations><tied type="start" /></notations></note><note dynamics="88.89"><pitch><step>E</step><alter>-1</alter><octave>3</octave></pitch><duration>5040</duration><tie type="stop" /><tie type="start" /><type>eighth</type><notations><tied type="stop" /><tied type="start" /></notations></note><note dynamics="88.89"><pitch><step>A</step><alter>0</alter><octave>1</octave></pitch><duration>1260</duration><type>32nd</type><accidental>natural</accidental></note><note dynamics="88.89"><pitch><step>E</step><alter>-1</alter><octave>3</octave></pitch><duration>1260</duration><tie type="stop" /><type>32nd</type><notations><tied type="stop" /></notations></note></measure><!--========================= Measure 26 =========================--><measure number="26" implicit="no"><harmony><root><root-step>D</root-step><root-alter>1</root-alter></root><kind>major-seventh</kind></harmony><note><rest /><duration>8820</duration><type>eighth</type><dot /><dot /></note><note dynamics="88.89"><pitch><step>B</step><alter>-1</alter><octave>1</octave></pitch><duration>30240</duration><type>half</type><dot /><accidental>flat</accidental></note><direction><direction-type><dynamics default-x="-36" default-y="-80"><f /></dynamics></direction-type><offset sound="yes">-20160</offset><sound dynamics="88" /></direction><note dynamics="106.67"><pitch><step>G</step><alter>0</alter><octave>1</octave></pitch><duration>20160</duration><tie type="start" /><type>half</type><accidental>natural</accidental><notations><tied type="start" /></notations></note><direction><direction-type><dynamics default-x="-36" default-y="-80"><mf /></dynamics></direction-type><offset sound="yes">-20160</offset><sound dynamics="69" /></direction><note dynamics="88.89"><pitch><step>F</step><alter>0</alter><octave>1</octave></pitch><duration>1260</duration><type>32nd</type><accidental>natural</accidental></note><note dynamics="106.67"><pitch><step>G</step><alter>0</alter><octave>1</octave></pitch><duration>1260</duration><tie type="stop" /><type>32nd</type><notations><tied type="stop" /></notations></note></measure><!--========================= Measure 27 =========================--><measure number="27" implicit="no"><harmony><root><root-step>G</root-step></root><kind>minor-seventh</kind></harmony><note><rest /><duration>9450</duration><type>eighth</type><dot /><dot /><dot /></note><note dynamics="88.89"><pitch><step>G</step><alter>0</alter><octave>1</octave></pitch><duration>30240</duration><type>half</type><dot /><accidental>natural</accidental></note><direction><direction-type><dynamics default-x="-36" default-y="-80"><f /></dynamics></direction-type><offset sound="yes">-20160</offset><sound dynamics="88" /></direction><note dynamics="106.67"><pitch><step>B</step><alter>-1</alter><octave>2</octave></pitch><duration>20160</duration><tie type="start" /><type>half</type><accidental>flat</accidental><notations><tied type="start" /></notations></note><direction><direction-type><dynamics default-x="-36" default-y="-80"><mf /></dynamics></direction-type><offset sound="yes">-20160</offset><sound dynamics="69" /></direction><note dynamics="88.89"><pitch><step>A</step><alter>0</alter><octave>2</octave></pitch><duration>630</duration><type>64th</type><accidental>natural</accidental></note><note dynamics="106.67"><pitch><step>B</step><alter>-1</alter><octave>2</octave></pitch><duration>630</duration><tie type="stop" /><type>64th</type><notations><tied type="stop" /></notations></note></measure><!--========================= Measure 28 =========================--><measure number="28" implicit="no"><harmony><root><root-step>G</root-step></root><kind>minor-seventh</kind></harmony><note><rest /><duration>15120</duration><type>quarter</type><dot /></note><direction><direction-type><dynamics default-x="-36" default-y="-80"><f /></dynamics></direction-type><sound dynamics="88" /></direction><note dynamics="106.67"><pitch><step>G</step><alter>0</alter><octave>2</octave></pitch><duration>20160</duration><tie type="start" /><type>half</type><accidental>natural</accidental><notations><tied type="start" /></notations></note><direction><direction-type><dynamics default-x="-36" default-y="-80"><mf /></dynamics></direction-type><offset sound="yes">-5040</offset><sound dynamics="69" /></direction><note dynamics="88.89"><pitch><step>F</step><alter>0</alter><octave>1</octave></pitch><duration>10080</duration><type>quarter</type><accidental>natural</accidental></note><note dynamics="106.67"><pitch><step>G</step><alter>0</alter><octave>2</octave></pitch><duration>5040</duration><tie type="stop" /><type>eighth</type><notations><tied type="stop" /></notations></note></measure><!--========================= Measure 29 =========================--><measure number="29" implicit="no"><harmony><root><root-step>G</root-step></root><kind>minor-seventh</kind></harmony><note dynamics="88.89"><pitch><step>F</step><alter>0</alter><octave>1</octave></pitch><duration>30240</duration><type>half</type><dot /><accidental>natural</accidental></note><note dynamics="88.89"><pitch><step>B</step><alter>-1</alter><octave>2</octave></pitch><duration>20160</duration><tie type="start" /><type>half</type><accidental>flat</accidental><notations><tied type="start" /></notations></note><note dynamics="88.89"><pitch><step>D</step><alter>0</alter><octave>3</octave></pitch><duration>19530</duration><type>quarter</type><dot /><dot /><dot /><dot /><accidental>natural</accidental></note><direction><direction-type><dynamics default-x="-36" default-y="-80"><f /></dynamics></direction-type><offset sound="yes">-39060</offset><sound dynamics="88" /></direction><note dynamics="106.67"><pitch><step>G</step><alter>0</alter><octave>1</octave></pitch><duration>9450</duration><type>eighth</type><dot /><dot /><dot /><accidental>natural</accidental></note><note dynamics="88.89"><pitch><step>B</step><alter>-1</alter><octave>2</octave></pitch><duration>9450</duration><tie type="stop" /><type>eighth</type><dot /><dot /><dot /><notations><tied type="stop" /></notations></note></measure><!--========================= Measure 30 =========================--><measure number="30" implicit="no"><harmony><root><root-step>C</root-step></root><kind>minor</kind></harmony><note><rest /><duration>1260</duration><type>32nd</type></note><note dynamics="106.67"><pitch><step>C</step><alter>0</alter><octave>3</octave></pitch><duration>39060</duration><type>half</type><dot /><dot /><dot /><dot /><accidental>natural</accidental></note><note dynamics="106.67"><pitch><step>E</step><alter>-1</alter><octave>3</octave></pitch><duration>20160</duration><tie type="start" /><type>half</type><accidental>flat</accidental><notations><tied type="start" /></notations></note><direction><direction-type><dynamics default-x="-36" default-y="-80"><mf /></dynamics></direction-type><offset sound="yes">-38430</offset><sound dynamics="69" /></direction><note dynamics="88.89"><pitch><step>G</step><alter>0</alter><octave>3</octave></pitch><duration>10080</duration><tie type="start" /><type>quarter</type><accidental>natural</accidental><notations><tied type="start" /></notations></note><note dynamics="106.67"><pitch><step>E</step><alter>-1</alter><octave>3</octave></pitch><duration>8820</duration><tie type="stop" /><type>eighth</type><dot /><dot /><notations><tied type="stop" /></notations></note><direction><direction-type><dynamics default-x="-36" default-y="-80"><f /></dynamics></direction-type><offset sound="yes">-47250</offset><sound dynamics="88" /></direction><note dynamics="88.89"><pitch><step>G</step><alter>0</alter><octave>3</octave></pitch><duration>5040</duration><tie type="stop" /><tie type="start" /><type>eighth</type><notations><tied type="stop" /><tied type="start" /></notations></note><note dynamics="106.67"><pitch><step>A</step><alter>0</alter><octave>1</octave></pitch><duration>5040</duration><tie type="start" /><type>eighth</type><accidental>natural</accidental><notations><tied type="start" /></notations></note><note dynamics="88.89"><pitch><step>G</step><alter>0</alter><octave>3</octave></pitch><duration>2520</duration><tie type="stop" /><tie type="start" /><type>16th</type><notations><tied type="stop" /><tied type="start" /></notations></note><note dynamics="106.67"><pitch><step>A</step><alter>0</alter><octave>1</octave></pitch><duration>2520</duration><tie type="stop" /><tie type="start" /><type>16th</type><notations><tied type="stop" /><tied type="start" /></notations></note><note dynamics="88.89"><pitch><step>G</step><alter>0</alter><octave>3</octave></pitch><duration>630</duration><tie type="stop" /><type>64th</type><notations><tied type="stop" /></notations></note><note dynamics="106.67"><pitch><step>A</step><alter>0</alter><octave>1</octave></pitch><duration>630</duration><tie type="stop" /><type>64th</type><notations><tied type="stop" /></notations></note></measure><!--========================= Measure 31 =========================--><measure number="31" implicit="no"><harmony><root><root-step>A</root-step><root-alter>1</root-alter></root><kind>major-seventh</kind></harmony><note><rest /><duration>1890</duration><type>32nd</type><dot /></note><note dynamics="106.67"><pitch><step>B</step><alter>-1</alter><octave>1</octave></pitch><duration>30240</duration><type>half</type><dot /><accidental>flat</accidental></note><note dynamics="106.67"><pitch><step>A</step><alter>0</alter><octave>1</octave></pitch><duration>20160</duration><tie type="start" /><type>half</type><accidental>natural</accidental><notations><tied type="start" /></notations></note><note dynamics="106.67"><pitch><step>A</step><alter>0</alter><octave>1</octave></pitch><duration>10080</duration><tie type="start" /><type>quarter</type><accidental>natural</accidental><notations><tied type="start" /></notations></note><note dynamics="106.67"><pitch><step>A</step><alter>0</alter><octave>1</octave></pitch><duration>7560</duration><tie type="stop" /><type>eighth</type><dot /><notations><tied type="stop" /></notations></note><note dynamics="106.67"><pitch><step>A</step><alter>0</alter><octave>1</octave></pitch><duration>5040</duration><tie type="stop" /><tie type="start" /><type>eighth</type><notations><tied type="stop" /><tied type="start" /></notations></note><note dynamics="106.67"><pitch><step>A</step><alter>0</alter><octave>1</octave></pitch><duration>5040</duration><tie type="start" /><type>eighth</type><accidental>natural</accidental><notations><tied type="start" /></notations></note><note dynamics="106.67"><pitch><step>A</step><alter>0</alter><octave>1</octave></pitch><duration>1890</duration><tie type="stop" /><type>32nd</type><dot /><notations><tied type="stop" /></notations></note><note dynamics="106.67"><pitch><step>A</step><alter>0</alter><octave>1</octave></pitch><duration>1890</duration><tie type="stop" /><type>32nd</type><dot /><notations><tied type="stop" /></notations></note></measure><!--========================= Measure 32 =========================--><measure number="32" implicit="no"><harmony><root><root-step>D</root-step><root-alter>1</root-alter></root><kind>major-seventh</kind></harmony><note><rest /><duration>2520</duration><type>16th</type></note><note><rest /><duration>630</duration><type>64th</type></note><note dynamics="106.67"><pitch><step>G</step><alter>0</alter><octave>1</octave></pitch><duration>20160</duration><tie type="start" /><type>half</type><accidental>natural</accidental><notations><tied type="start" /></notations></note><note dynamics="106.67"><pitch><step>A</step><alter>0</alter><octave>2</octave></pitch><duration>20160</duration><tie type="start" /><type>half</type><accidental>natural</accidental><notations><tied type="start" /></notations></note><note dynamics="106.67"><pitch><step>G</step><alter>0</alter><octave>1</octave></pitch><duration>10080</duration><tie type="stop" /><tie type="start" /><type>quarter</type><notations><tied type="stop" /><tied type="start" /></notations></note><note dynamics="106.67"><pitch><step>D</step><alter>0</alter><octave>3</octave></pitch><duration>10080</duration><tie type="start" /><type>quarter</type><accidental>natural</accidental><notations><tied type="start" /></notations></note><note dynamics="106.67"><pitch><step>G</step><alter>0</alter><octave>1</octave></pitch><duration>5040</duration><tie type="stop" /><tie type="start" /><type>eighth</type><notations><tied type="stop" /><tied type="start" /></notations></note><note dynamics="106.67"><pitch><step>A</step><alter>0</alter><octave>2</octave></pitch><duration>5040</duration><tie type="stop" /><tie type="start" /><type>eighth</type><notations><tied type="stop" /><tied type="start" /></notations></note><note dynamics="106.67"><pitch><step>D</step><alter>0</alter><octave>3</octave></pitch><duration>5040</duration><tie type="stop" /><tie type="start" /><type>eighth</type><notations><tied type="stop" /><tied type="start" /></notations></note><note dynamics="106.67"><pitch><step>E</step><alter>-1</alter><octave>3</octave></pitch><duration>5040</duration><tie type="start" /><type>eighth</type><accidental>flat</accidental><notations><tied type="start" /></notations></note><note dynamics="106.67"><pitch><step>G</step><alter>0</alter><octave>1</octave></pitch><duration>1890</duration><tie type="stop" /><type>32nd</type><dot /><notations><tied type="stop" /></notations></note><note dynamics="106.67"><pitch><step>A</step><alter>0</alter><octave>2</octave></pitch><duration>1890</duration><tie type="stop" /><type>32nd</type><dot /><notations><tied type="stop" /></notations></note><note dynamics="106.67"><pitch><step>D</step><alter>0</alter><octave>3</octave></pitch><duration>1890</duration><tie type="stop" /><type>32nd</type><dot /><notations><tied type="stop" /></notations></note><note dynamics="106.67"><pitch><step>E</step><alter>-1</alter><octave>3</octave></pitch><duration>1260</duration><tie type="stop" /><type>32nd</type><notations><tied type="stop" /></notations></note></measure></part></score-partwise>