<?xml version="1.0" encoding="UTF-8"?>
<score-partwise version="4.0"><work><work-title>Acompañamiento Generado</work-title></work><movement-title>Acompañamiento Generado</movement-title><identification><creator type="composer">Music21</creator><encoding><encoding-date>2026-04-02</encoding-date><software>music21 v.9.9.1</software></encoding></identification><defaults><scaling><millimeters>7</millimeters><tenths>40</tenths></scaling></defaults><part-list><score-part id="P274cc2c70403dd53b77e2111718cad25"><part-name>Melodía</part-name><part-abbreviation>Gtr</part-abbreviation><score-instrument id="I0e1e616fb44d573d22a60968def039e7"><instrument-name>Guitar</instrument-name><instrument-abbreviation>Gtr</instrument-abbreviation></score-instrument><midi-instrument id="I0e1e616fb44d573d22a60968def039e7"><midi-channel>1</midi-channel><midi-program>25</midi-program></midi-instrument></score-part><score-part id="Pdd18c9d093f6071e1a9a4f538a129e0d"><part-name>Bass (FUNK)</part-name><part-abbreviation>Elec b</part-abbreviation><score-instrument id="I7945b4706551ea7c50d432ef884d86f1"><instrument-name>Electric Bass</instrument-name><instrument-abbreviation>Elec b</instrument-abbreviation></score-instrument><midi-instrument id="I7945b4706551ea7c50d432ef884d86f1"><midi-channel>2</midi-channel><midi-program>34</midi-program></midi-instrument></score-part></part-list><!--=========================== Part 1 ===========================--><part id="P274cc2c70403dd53b77e2111718cad25"><!--========================= Measure 1 ==========================--><measure number="1" implicit="no"><attributes><divisions>10080</divisions><key><fifths>1</fifths><mode>major</mode></key><time><beats>4</beats><beat-type>4</beat-type></time><clef><sign>G</sign><line>2</line></clef></attributes><direction><direction-type><metronome parentheses="no"><beat-unit>quarter</beat-unit><per-minute>160</per-minute></metronome></direction-type><sound tempo="160" /></direction></measure><!--========================= Measure 2 ==========================--><measure number="2" implicit="no"><harmony><root><root-step>E</root-step></root><kind>minor-seventh</kind></harmony><note><rest /><duration>9450</duration><type>eighth</type><dot /><dot /><dot /></note><direction><direction-type><dynamics default-x="-36" default-y="-80"><mf /></dynamics></direction-type><sound dynamics="69" /></direction><note dynamics="88.89"><pitch><step>D</step><alter>0</alter><octave>5</octave></pitch><duration>10080</duration><type>quarter</type><accidental>natural</accidental></note><note dynamics="88.89"><pitch><step>E</step><alter>0</alter><octave>5</octave></pitch><duration>10080</duration><type>quarter</type><accidental>natural</accidental></note><note dynamics="88.89"><pitch><step>D</step><alter>0</alter><octave>5</octave></pitch><duration>10080</duration><type>quarter</type><accidental>natural</accidental></note><note dynamics="88.89"><pitch><step>B</step><alter>0</alter><octave>4</octave></pitch><duration>1260</duration><type>32nd</type><accidental>natural</accidental></note></measure><!--========================= Measure 3 ==========================--><measure number="3" implicit="no"><harmony><root><root-step>D</root-step></root><kind>minor-seventh</kind></harmony><note><rest /><duration>8820</duration><type>eighth</type><dot /><dot /></note><note dynamics="88.89"><pitch><step>C</step><alter>0</alter><octave>5</octave></pitch><duration>10080</duration><type>quarter</type><accidental>natural</accidental></note><note><rest /><duration>9450</duration><type>eighth</type><dot /><dot /><dot /></note><direction><direction-type><dynamics default-x="-36" default-y="-80"><mp /></dynamics></direction-type><sound dynamics="57" /></direction><note dynamics="71.11"><pitch><step>C</step><alter>0</alter><octave>5</octave></pitch><duration>10080</duration><type>quarter</type><accidental>natural</accidental></note><direction><direction-type><dynamics default-x="-36" default-y="-80"><mf /></dynamics></direction-type><sound dynamics="69" /></direction><note dynamics="88.89"><pitch><step>D</step><alter>0</alter><octave>5</octave></pitch><duration>1890</duration><type>32nd</type><dot /><accidental>natural</accidental></note></measure><!--========================= Measure 4 ==========================--><measure number="4" implicit="no"><harmony><root><root-step>F</root-step></root><kind>major</kind></harmony><note><rest /><duration>5040</duration><type>eighth</type></note><note><rest /><duration>2520</duration><type>16th</type></note><note><rest /><duration>630</duration><type>64th</type></note><note dynamics="88.89"><pitch><step>C</step><alter>0</alter><octave>5</octave></pitch><duration>10080</duration><type>quarter</type><accidental>natural</accidental></note><note dynamics="88.89"><pitch><step>A</step><alter>0</alter><octave>4</octave></pitch><duration>10080</duration><type>quarter</type><accidental>natural</accidental></note><note dynamics="88.89"><pitch><step>B</step><alter>0</alter><octave>4</octave></pitch><duration>10080</duration><type>quarter</type><accidental>natural</accidental></note></measure><!--========================= Measure 5 ==========================--><measure number="5" implicit="no"><harmony><root><root-step>G</root-step></root><kind>major</kind></harmony><note><rest /><duration>7560</duration><type>eighth</type><dot /></note><direction><direction-type><dynamics default-x="-36" default-y="-80"><mp /></dynamics></direction-type><sound dynamics="57" /></direction><note dynamics="71.11"><pitch><step>B</step><alter>0</alter><octave>4</octave></pitch><duration>10080</duration><type>quarter</type><accidental>natural</accidental></note><note dynamics="71.11"><pitch><step>D</step><alter>0</alter><octave>5</octave></pitch><duration>10080</duration><type>quarter</type><accidental>natural</accidental></note><note dynamics="71.11"><pitch><step>C</step><alter>0</alter><octave>5</octave></pitch><duration>10080</duration><type>quarter</type><accidental>natural</accidental></note><note dynamics="71.11"><pitch><step>B</step><alter>0</alter><octave>4</octave></pitch><duration>2520</duration><tie type="start" /><type>16th</type><accidental>natural</accidental><notations><tied type="start" /></notations></note><note dynamics="71.11"><pitch><step>B</step><alter>0</alter><octave>4</octave></pitch><duration>630</duration><tie type="stop" /><type>64th</type><notations><tied type="stop" /></notations></note></measure><!--========================= Measure 6 ==========================--><measure number="6" implicit="no"><harmony><root><root-step>C</root-step></root><kind>major-seventh</kind></harmony><note><rest /><duration>5040</duration><type>eighth</type></note><note><rest /><duration>1890</duration><type>32nd</type><dot /></note><direction><direction-type><dynamics default-x="-36" default-y="-80"><mf /></dynamics></direction-type><sound dynamics="69" /></direction><note dynamics="88.89"><pitch><step>A</step><alter>0</alter><octave>4</octave></pitch><duration>10080</duration><type>quarter</type><accidental>natural</accidental></note><note dynamics="88.89"><pitch><step>B</step><alter>0</alter><octave>4</octave></pitch><duration>10080</duration><type>quarter</type><accidental>natural</accidental></note><note dynamics="88.89"><pitch><step>G</step><alter>0</alter><octave>4</octave></pitch><duration>10080</duration><type>quarter</type><accidental>natural</accidental></note><note dynamics="88.89"><pitch><step>E</step><alter>0</alter><octave>4</octave></pitch><duration>3780</duration><type>16th</type><dot /><accidental>natural</accidental></note></measure><!--========================= Measure 7 ==========================--><measure number="7" implicit="no"><harmony><root><root-step>D</root-step></root><kind>major</kind></harmony><note><rest /><duration>5040</duration><type>eighth</type></note><note><rest /><duration>1260</duration><type>32nd</type></note><note dynamics="88.89"><pitch><step>A</step><alter>0</alter><octave>4</octave></pitch><duration>10080</duration><type>quarter</type><accidental>natural</accidental></note><note dynamics="88.89"><pitch><step>G</step><alter>0</alter><octave>4</octave></pitch><duration>10080</duration><type>quarter</type><accidental>natural</accidental></note><direction><direction-type><dynamics default-x="-36" default-y="-80"><f /></dynamics></direction-type><offset sound="yes">-630</offset><sound dynamics="88" /></direction><note dynamics="106.67"><pitch><step>F</step><alter>1</alter><octave>4</octave></pitch><duration>10080</duration><type>quarter</type><accidental>sharp</accidental></note></measure><!--========================= Measure 8 ==========================--><measure number="8" implicit="no"><harmony><root><root-step>E</root-step></root><kind>dominant</kind></harmony><note><rest /><duration>5040</duration><type>eighth</type></note><note><rest /><duration>630</duration><type>64th</type></note><direction><direction-type><dynamics default-x="-36" default-y="-80"><mp /></dynamics></direction-type><sound dynamics="57" /></direction><note dynamics="71.11"><pitch><step>D</step><alter>0</alter><octave>5</octave></pitch><duration>10080</duration><type>quarter</type><accidental>natural</accidental></note><direction><direction-type><dynamics default-x="-36" default-y="-80"><mf /></dynamics></direction-type><offset sound="yes">-630</offset><sound dynamics="69" /></direction><note dynamics="88.89"><pitch><step>E</step><alter>0</alter><octave>5</octave></pitch><duration>10080</duration><type>quarter</type><accidental>natural</accidental></note><note dynamics="88.89"><pitch><step>D</step><alter>0</alter><octave>5</octave></pitch><duration>10080</duration><type>quarter</type><accidental>natural</accidental></note><note dynamics="88.89"><pitch><step>B</step><alter>0</alter><octave>4</octave></pitch><duration>5040</duration><type>eighth</type><accidental>natural</accidental></note><note dynamics="88.89"><pitch><step>G</step><alter>1</alter><octave>5</octave></pitch><duration>5040</duration><type>eighth</type><accidental>sharp</accidental></note></measure><!--========================= Measure 9 ==========================--><measure number="9" implicit="no"><harmony><root><root-step>D</root-step></root><kind>dominant</kind></harmony><note><rest /><duration>5040</duration><type>eighth</type></note><note dynamics="88.89"><pitch><step>C</step><alter>0</alter><octave>5</octave></pitch><duration>10080</duration><type>quarter</type><accidental>natural</accidental></note><note dynamics="88.89"><pitch><step>B</step><alter>0</alter><octave>5</octave></pitch><duration>10080</duration><type>quarter</type><accidental>natural</accidental></note><note dynamics="88.89"><pitch><step>A</step><alter>0</alter><octave>5</octave></pitch><duration>10080</duration><type>quarter</type><accidental>natural</accidental></note><note dynamics="88.89"><pitch><step>C</step><alter>0</alter><octave>5</octave></pitch><duration>10080</duration><type>quarter</type><accidental>natural</accidental></note><note dynamics="88.89"><pitch><step>E</step><alter>0</alter><octave>5</octave></pitch><duration>10080</duration><type>quarter</type><accidental>natural</accidental></note><note dynamics="88.89"><pitch><step>F</step><alter>1</alter><octave>5</octave></pitch><duration>5040</duration><tie type="start" /><type>eighth</type><accidental>sharp</accidental><notations><tied type="start" /></notations></note><note dynamics="88.89"><pitch><step>D</step><alter>0</alter><octave>5</octave></pitch><duration>5040</duration><tie type="start" /><type>eighth</type><accidental>natural</accidental><notations><tied type="start" /></notations></note><note dynamics="88.89"><pitch><step>F</step><alter>1</alter><octave>5</octave></pitch><duration>630</duration><tie type="stop" /><type>64th</type><notations><tied type="stop" /></notations></note><note dynamics="88.89"><pitch><step>D</step><alter>0</alter><octave>5</octave></pitch><duration>630</duration><tie type="stop" /><type>64th</type><notations><tied type="stop" /></notations></note></measure><!--========================= Measure 10 =========================--><measure number="10" implicit="no"><harmony><root><root-step>C</root-step></root><kind>major-seventh</kind></harmony><note><rest /><duration>4410</duration><type>16th</type><dot /><dot /></note><note dynamics="88.89"><pitch><step>C</step><alter>0</alter><octave>5</octave></pitch><duration>10080</duration><type>quarter</type><accidental>natural</accidental></note><note dynamics="88.89"><pitch><step>A</step><alter>0</alter><octave>4</octave></pitch><duration>10080</duration><type>quarter</type><accidental>natural</accidental></note><note dynamics="88.89"><pitch><step>F</step><alter>1</alter><octave>5</octave></pitch><duration>10080</duration><type>quarter</type><accidental>sharp</accidental></note><note dynamics="88.89"><pitch><step>B</step><alter>0</alter><octave>4</octave></pitch><duration>10080</duration><type>quarter</type><accidental>natural</accidental></note><note dynamics="88.89"><pitch><step>A</step><alter>0</alter><octave>5</octave></pitch><duration>10080</duration><type>quarter</type><accidental>natural</accidental></note><note dynamics="88.89"><pitch><step>G</step><alter>0</alter><octave>5</octave></pitch><duration>5040</duration><tie type="start" /><type>eighth</type><accidental>natural</accidental><notations><tied type="start" /></notations></note><note dynamics="88.89"><pitch><step>G</step><alter>0</alter><octave>5</octave></pitch><duration>1260</duration><tie type="stop" /><type>32nd</type><notations><tied type="stop" /></notations></note></measure><!--========================= Measure 11 =========================--><measure number="11" implicit="no"><harmony><root><root-step>C</root-step></root><kind>diminished-seventh</kind></harmony><note><rest /><duration>3780</duration><type>16th</type><dot /></note><note dynamics="88.89"><pitch><step>D</step><alter>0</alter><octave>5</octave></pitch><duration>10080</duration><type>quarter</type><accidental>natural</accidental></note><note dynamics="88.89"><pitch><step>E</step><alter>-1</alter><octave>5</octave></pitch><duration>10080</duration><type>quarter</type><accidental>flat</accidental></note><note dynamics="88.89"><pitch><step>E</step><alter>0</alter><octave>5</octave></pitch><duration>10080</duration><type>quarter</type><accidental>natural</accidental></note><note dynamics="88.89"><pitch><step>A</step><alter>0</alter><octave>4</octave></pitch><duration>5040</duration><tie type="start" /><type>eighth</type><accidental>natural</accidental><notations><tied type="start" /></notations></note><note dynamics="88.89"><pitch><step>A</step><alter>0</alter><octave>4</octave></pitch><duration>1890</duration><tie type="stop" /><type>32nd</type><dot /><notations><tied type="stop" /></notations></note></measure><!--========================= Measure 12 =========================--><measure number="12" implicit="no"><harmony><root><root-step>C</root-step></root><kind>major-seventh</kind></harmony><note><rest /><duration>2520</duration><type>16th</type></note><note><rest /><duration>630</duration><type>64th</type></note><note dynamics="88.89"><pitch><step>B</step><alter>0</alter><octave>4</octave></pitch><duration>10080</duration><type>quarter</type><accidental>natural</accidental></note><note dynamics="88.89"><pitch><step>C</step><alter>0</alter><octave>5</octave></pitch><duration>10080</duration><type>quarter</type><accidental>natural</accidental></note><note dynamics="88.89"><pitch><step>E</step><alter>0</alter><octave>4</octave></pitch><duration>10080</duration><type>quarter</type><accidental>natural</accidental></note><note dynamics="88.89"><pitch><step>F</step><alter>1</alter><octave>4</octave></pitch><duration>7560</duration><type>eighth</type><dot /><accidental>sharp</accidental></note></measure><!--========================= Measure 13 =========================--><measure number="13" implicit="no"><harmony><root><root-step>A</root-step></root><kind>minor-seventh</kind></harmony><note><rest /><duration>2520</duration><type>16th</type></note><direction><direction-type><dynamics default-x="-36" default-y="-80"><mp /></dynamics></direction-type><sound dynamics="57" /></direction><note dynamics="71.11"><pitch><step>G</step><alter>0</alter><octave>4</octave></pitch><duration>10080</duration><type>quarter</type><accidental>natural</accidental></note><note dynamics="71.11"><pitch><step>A</step><alter>0</alter><octave>4</octave></pitch><duration>10080</duration><type>quarter</type><accidental>natural</accidental></note><note dynamics="71.11"><pitch><step>G</step><alter>0</alter><octave>4</octave></pitch><duration>10080</duration><type>quarter</type><accidental>natural</accidental></note></measure><!--========================= Measure 14 =========================--><measure number="14" implicit="no"><harmony><root><root-step>E</root-step></root><kind>minor-seventh</kind></harmony><note><rest /><duration>1890</duration><type>32nd</type><dot /></note><direction><direction-type><dynamics default-x="-36" default-y="-80"><mf /></dynamics></direction-type><sound dynamics="69" /></direction><note dynamics="88.89"><pitch><step>D</step><alter>0</alter><octave>5</octave></pitch><duration>10080</duration><type>quarter</type><accidental>natural</accidental></note><note dynamics="88.89"><pitch><step>E</step><alter>0</alter><octave>5</octave></pitch><duration>10080</duration><type>quarter</type><accidental>natural</accidental></note><note dynamics="88.89"><pitch><step>D</step><alter>0</alter><octave>5</octave></pitch><duration>10080</duration><type>quarter</type><accidental>natural</accidental></note><note dynamics="88.89"><pitch><step>B</step><alter>0</alter><octave>4</octave></pitch><duration>8820</duration><type>eighth</type><dot /><dot /><accidental>natural</accidental></note></measure><!--========================= Measure 15 =========================--><measure number="15" implicit="no"><harmony><root><root-step>D</root-step></root><kind>minor-seventh</kind></harmony><note><rest /><duration>1260</duration><type>32nd</type></note><note dynamics="88.89"><pitch><step>C</step><alter>0</alter><octave>5</octave></pitch><duration>10080</duration><type>quarter</type><accidental>natural</accidental></note><note><rest /><duration>9450</duration><type>eighth</type><dot /><dot /><dot /></note><direction><direction-type><dynamics default-x="-36" default-y="-80"><mp /></dynamics></direction-type><sound dynamics="57" /></direction><note dynamics="71.11"><pitch><step>C</step><alter>0</alter><octave>5</octave></pitch><duration>10080</duration><type>quarter</type><accidental>natural</accidental></note><direction><direction-type><dynamics default-x="-36" default-y="-80"><mf /></dynamics></direction-type><sound dynamics="69" /></direction><note dynamics="88.89"><pitch><step>D</step><alter>0</alter><octave>5</octave></pitch><duration>9450</duration><type>eighth</type><dot /><dot /><dot /><accidental>natural</accidental></note></measure><!--========================= Measure 16 =========================--><measure number="16" implicit="no"><harmony><root><root-step>F</root-step></root><kind>major</kind></harmony><note><rest /><duration>630</duration><type>64th</type></note><note dynamics="88.89"><pitch><step>C</step><alter>0</alter><octave>5</octave></pitch><duration>10080</duration><type>quarter</type><accidental>natural</accidental></note><note dynamics="88.89"><pitch><step>A</step><alter>0</alter><octave>4</octave></pitch><duration>10080</duration><type>quarter</type><accidental>natural</accidental></note><note dynamics="88.89"><pitch><step>B</step><alter>0</alter><octave>4</octave></pitch><duration>10080</duration><type>quarter</type><accidental>natural</accidental></note><note><rest /><duration>9450</duration><type>eighth</type><dot /><dot /><dot /></note><direction><direction-type><dynamics default-x="-36" default-y="-80"><mp /></dynamics></direction-type><offset sound="yes">-630</offset><sound dynamics="57" /></direction><note dynamics="71.11"><pitch><step>B</step><alter>0</alter><octave>4</octave></pitch><duration>630</duration><type>64th</type><accidental>natural</accidental></note></measure><!--========================= Measure 17 =========================--><measure number="17" implicit="no"><harmony><root><root-step>D</root-step></root><kind>minor-seventh</kind></harmony><note><rest /><duration>9450</duration><type>eighth</type><dot /><dot /><dot /></note><note dynamics="71.11"><pitch><step>D</step><alter>0</alter><octave>5</octave></pitch><duration>10080</duration><type>quarter</type><accidental>natural</accidental></note><note dynamics="71.11"><pitch><step>C</step><alter>0</alter><octave>5</octave></pitch><duration>10080</duration><type>quarter</type><accidental>natural</accidental></note><note dynamics="71.11"><pitch><step>B</step><alter>0</alter><octave>4</octave></pitch><duration>10080</duration><type>quarter</type><accidental>natural</accidental></note><direction><direction-type><dynamics default-x="-36" default-y="-80"><mf /></dynamics></direction-type><offset sound="yes">-630</offset><sound dynamics="69" /></direction><note dynamics="88.89"><pitch><step>A</step><alter>0</alter><octave>4</octave></pitch><duration>1260</duration><type>32nd</type><accidental>natural</accidental></note></measure><!--========================= Measure 18 =========================--><measure number="18" implicit="no"><harmony><root><root-step>C</root-step></root><kind>major-seventh</kind></harmony><note><rest /><duration>8820</duration><type>eighth</type><dot /><dot /></note><note dynamics="88.89"><pitch><step>B</step><alter>0</alter><octave>4</octave></pitch><duration>10080</duration><type>quarter</type><accidental>natural</accidental></note><note dynamics="88.89"><pitch><step>G</step><alter>0</alter><octave>4</octave></pitch><duration>10080</duration><type>quarter</type><accidental>natural</accidental></note><note dynamics="88.89"><pitch><step>E</step><alter>0</alter><octave>4</octave></pitch><duration>10080</duration><type>quarter</type><accidental>natural</accidental></note><note dynamics="88.89"><pitch><step>A</step><alter>0</alter><octave>4</octave></pitch><duration>1890</duration><type>32nd</type><dot /><accidental>natural</accidental></note></measure><!--========================= Measure 19 =========================--><measure number="19" implicit="no"><harmony><root><root-step>G</root-step></root><kind>major-seventh</kind></harmony><note><rest /><duration>5040</duration><type>eighth</type></note><note><rest /><duration>2520</duration><type>16th</type></note><note><rest /><duration>630</duration><type>64th</type></note><note dynamics="88.89"><pitch><step>G</step><alter>0</alter><octave>4</octave></pitch><duration>10080</duration><type>quarter</type><accidental>natural</accidental></note><direction><direction-type><dynamics default-x="-36" default-y="-80"><f /></dynamics></direction-type><sound dynamics="88" /></direction><note dynamics="106.67"><pitch><step>F</step><alter>1</alter><octave>4</octave></pitch><duration>10080</duration><type>quarter</type><accidental>sharp</accidental></note><note><rest /><duration>9450</duration><type>eighth</type><dot /><dot /><dot /></note><direction><direction-type><dynamics default-x="-36" default-y="-80"><mp /></dynamics></direction-type><sound dynamics="57" /></direction><note dynamics="71.11"><pitch><step>D</step><alter>0</alter><octave>5</octave></pitch><duration>2520</duration><type>16th</type><accidental>natural</accidental></note></measure><!--========================= Measure 20 =========================--><measure number="20" implicit="no"><harmony><root><root-step>E</root-step></root><kind>dominant</kind></harmony><note><rest /><duration>7560</duration><type>eighth</type><dot /></note><direction><direction-type><dynamics default-x="-36" default-y="-80"><mf /></dynamics></direction-type><sound dynamics="69" /></direction><note dynamics="88.89"><pitch><step>E</step><alter>0</alter><octave>5</octave></pitch><duration>10080</duration><type>quarter</type><accidental>natural</accidental></note><note dynamics="88.89"><pitch><step>D</step><alter>0</alter><octave>5</octave></pitch><duration>10080</duration><type>quarter</type><accidental>natural</accidental></note><note dynamics="88.89"><pitch><step>B</step><alter>0</alter><octave>4</octave></pitch><duration>10080</duration><type>quarter</type><accidental>natural</accidental></note><note dynamics="88.89"><pitch><step>G</step><alter>1</alter><octave>5</octave></pitch><duration>10080</duration><type>quarter</type><accidental>sharp</accidental></note><note dynamics="88.89"><pitch><step>C</step><alter>0</alter><octave>5</octave></pitch><duration>2520</duration><tie type="start" /><type>16th</type><accidental>natural</accidental><notations><tied type="start" /></notations></note><note dynamics="88.89"><pitch><step>B</step><alter>0</alter><octave>5</octave></pitch><duration>2520</duration><tie type="start" /><type>16th</type><accidental>natural</accidental><notations><tied type="start" /></notations></note><note dynamics="88.89"><pitch><step>C</step><alter>0</alter><octave>5</octave></pitch><duration>630</duration><tie type="stop" /><type>64th</type><notations><tied type="stop" /></notations></note><note dynamics="88.89"><pitch><step>B</step><alter>0</alter><octave>5</octave></pitch><duration>630</duration><tie type="stop" /><type>64th</type><notations><tied type="stop" /></notations></note></measure><!--========================= Measure 21 =========================--><measure number="21" implicit="no"><harmony><root><root-step>D</root-step></root><kind>dominant</kind></harmony><note><rest /><duration>5040</duration><type>eighth</type></note><note><rest /><duration>1890</duration><type>32nd</type><dot /></note><note dynamics="88.89"><pitch><step>A</step><alter>0</alter><octave>5</octave></pitch><duration>10080</duration><type>quarter</type><accidental>natural</accidental></note><note dynamics="88.89"><pitch><step>C</step><alter>0</alter><octave>5</octave></pitch><duration>10080</duration><type>quarter</type><accidental>natural</accidental></note><note dynamics="88.89"><pitch><step>E</step><alter>0</alter><octave>5</octave></pitch><duration>10080</duration><type>quarter</type><accidental>natural</accidental></note><note dynamics="88.89"><pitch><step>F</step><alter>1</alter><octave>5</octave></pitch><duration>10080</duration><type>quarter</type><accidental>sharp</accidental></note><note dynamics="88.89"><pitch><step>D</step><alter>0</alter><octave>5</octave></pitch><duration>10080</duration><type>quarter</type><accidental>natural</accidental></note><note dynamics="88.89"><pitch><step>C</step><alter>0</alter><octave>5</octave></pitch><duration>3780</duration><type>16th</type><dot /><accidental>natural</accidental></note></measure><!--========================= Measure 22 =========================--><measure number="22" implicit="no"><harmony><root><root-step>G</root-step></root><kind>major-seventh</kind></harmony><note><rest /><duration>5040</duration><type>eighth</type></note><note><rest /><duration>1260</duration><type>32nd</type></note><note dynamics="88.89"><pitch><step>A</step><alter>0</alter><octave>4</octave></pitch><duration>10080</duration><type>quarter</type><accidental>natural</accidental></note><note dynamics="88.89"><pitch><step>F</step><alter>1</alter><octave>5</octave></pitch><duration>10080</duration><type>quarter</type><accidental>sharp</accidental></note><note dynamics="88.89"><pitch><step>B</step><alter>0</alter><octave>4</octave></pitch><duration>10080</duration><type>quarter</type><accidental>natural</accidental></note><note dynamics="88.89"><pitch><step>A</step><alter>0</alter><octave>5</octave></pitch><duration>10080</duration><type>quarter</type><accidental>natural</accidental></note><note dynamics="88.89"><pitch><step>G</step><alter>0</alter><octave>5</octave></pitch><duration>10080</duration><type>quarter</type><accidental>natural</accidental></note><note dynamics="88.89"><pitch><step>D</step><alter>0</alter><octave>5</octave></pitch><duration>4410</duration><type>16th</type><dot /><dot /><accidental>natural</accidental></note></measure><!--========================= Measure 23 =========================--><measure number="23" implicit="no"><harmony><root><root-step>E</root-step></root><kind>major-seventh</kind></harmony><note><rest /><duration>5040</duration><type>eighth</type></note><note><rest /><duration>630</duration><type>64th</type></note><note dynamics="88.89"><pitch><step>E</step><alter>-1</alter><octave>5</octave></pitch><duration>10080</duration><type>quarter</type><accidental>flat</accidental></note><note dynamics="88.89"><pitch><step>E</step><alter>0</alter><octave>5</octave></pitch><duration>10080</duration><type>quarter</type><accidental>natural</accidental></note><note dynamics="88.89"><pitch><step>A</step><alter>0</alter><octave>4</octave></pitch><duration>10080</duration><type>quarter</type><accidental>natural</accidental></note><note dynamics="88.89"><pitch><step>B</step><alter>0</alter><octave>4</octave></pitch><duration>5040</duration><type>eighth</type><accidental>natural</accidental></note></measure><!--========================= Measure 24 =========================--><measure number="24" implicit="no"><harmony><root><root-step>C</root-step></root><kind>major</kind></harmony><note><rest /><duration>5040</duration><type>eighth</type></note><note dynamics="88.89"><pitch><step>C</step><alter>0</alter><octave>5</octave></pitch><duration>10080</duration><type>quarter</type><accidental>natural</accidental></note><note dynamics="88.89"><pitch><step>E</step><alter>0</alter><octave>4</octave></pitch><duration>10080</duration><type>quarter</type><accidental>natural</accidental></note><note dynamics="88.89"><pitch><step>F</step><alter>1</alter><octave>4</octave></pitch><duration>10080</duration><type>quarter</type><accidental>sharp</accidental></note><direction><direction-type><dynamics default-x="-36" default-y="-80"><mp /></dynamics></direction-type><offset sound="yes">-630</offset><sound dynamics="57" /></direction><note dynamics="71.11"><pitch><step>G</step><alter>0</alter><octave>4</octave></pitch><duration>5040</duration><tie type="start" /><type>eighth</type><accidental>natural</accidental><notations><tied type="start" /></notations></note><note dynamics="71.11"><pitch><step>G</step><alter>0</alter><octave>4</octave></pitch><duration>630</duration><tie type="stop" /><type>64th</type><notations><tied type="stop" /></notations></note></measure><!--========================= Measure 25 =========================--><measure number="25" implicit="no"><harmony><root><root-step>D</root-step></root><kind>major</kind></harmony><note><rest /><duration>4410</duration><type>16th</type><dot /><dot /></note><note dynamics="71.11"><pitch><step>A</step><alter>0</alter><octave>4</octave></pitch><duration>10080</duration><type>quarter</type><accidental>natural</accidental></note><note dynamics="71.11"><pitch><step>G</step><alter>0</alter><octave>4</octave></pitch><duration>10080</duration><type>quarter</type><accidental>natural</accidental></note><note><rest /><duration>9450</duration><type>eighth</type><dot /><dot /><dot /></note><direction><direction-type><dynamics default-x="-36" default-y="-80"><mf /></dynamics></direction-type><sound dynamics="69" /></direction><note dynamics="88.89"><pitch><step>D</step><alter>0</alter><octave>4</octave></pitch><duration>5040</duration><tie type="start" /><type>eighth</type><accidental>natural</accidental><stem>up</stem><beam number="1">begin</beam><notations><tied type="start" /></notations></note><note dynamics="88.89"><pitch><step>D</step><alter>0</alter><octave>4</octave></pitch><duration>1260</duration><tie type="stop" /><type>32nd</type><stem>up</stem><beam number="1">end</beam><beam number="2">backward hook</beam><beam number="3">backward hook</beam><notations><tied type="stop" /></notations></note></measure><!--========================= Measure 26 =========================--><measure number="26" implicit="no"><harmony><root><root-step>D</root-step></root><kind>dominant</kind></harmony><note><rest /><duration>3780</duration><type>16th</type><dot /></note><note dynamics="88.89"><pitch><step>E</step><alter>0</alter><octave>4</octave></pitch><duration>10080</duration><type>quarter</type><accidental>natural</accidental></note><note dynamics="88.89"><pitch><step>C</step><alter>0</alter><octave>4</octave></pitch><duration>10080</duration><type>quarter</type><accidental>natural</accidental></note><note dynamics="88.89"><pitch><step>F</step><alter>1</alter><octave>4</octave></pitch><duration>10080</duration><type>quarter</type><accidental>sharp</accidental></note><note dynamics="88.89"><pitch><step>D</step><alter>0</alter><octave>4</octave></pitch><duration>10080</duration><type>quarter</type><accidental>natural</accidental></note><note dynamics="88.89"><pitch><step>G</step><alter>0</alter><octave>4</octave></pitch><duration>10080</duration><type>quarter</type><accidental>natural</accidental></note><note dynamics="88.89"><pitch><step>E</step><alter>0</alter><octave>4</octave></pitch><duration>10080</duration><type>quarter</type><accidental>natural</accidental></note><note dynamics="88.89"><pitch><step>A</step><alter>0</alter><octave>4</octave></pitch><duration>5040</duration><tie type="start" /><type>eighth</type><accidental>natural</accidental><notations><tied type="start" /></notations></note><note dynamics="88.89"><pitch><step>F</step><alter>1</alter><octave>4</octave></pitch><duration>5040</duration><tie type="start" /><type>eighth</type><accidental>sharp</accidental><notations><tied type="start" /></notations></note><note dynamics="88.89"><pitch><step>A</step><alter>0</alter><octave>4</octave></pitch><duration>1890</duration><tie type="stop" /><type>32nd</type><dot /><notations><tied type="stop" /></notations></note><note dynamics="88.89"><pitch><step>F</step><alter>1</alter><octave>4</octave></pitch><duration>1890</duration><tie type="stop" /><type>32nd</type><dot /><notations><tied type="stop" /></notations></note></measure><!--========================= Measure 27 =========================--><measure number="27" implicit="no"><harmony><root><root-step>C</root-step></root><kind>major-seventh</kind></harmony><note><rest /><duration>2520</duration><type>16th</type></note><note><rest /><duration>630</duration><type>64th</type></note><note dynamics="88.89"><pitch><step>B</step><alter>0</alter><octave>4</octave></pitch><duration>10080</duration><type>quarter</type><accidental>natural</accidental></note><note dynamics="88.89"><pitch><step>G</step><alter>0</alter><octave>4</octave></pitch><duration>10080</duration><type>quarter</type><accidental>natural</accidental></note><note dynamics="88.89"><pitch><step>C</step><alter>0</alter><octave>5</octave></pitch><duration>10080</duration><type>quarter</type><accidental>natural</accidental></note><note dynamics="88.89"><pitch><step>A</step><alter>0</alter><octave>4</octave></pitch><duration>10080</duration><type>quarter</type><accidental>natural</accidental></note><note dynamics="88.89"><pitch><step>D</step><alter>0</alter><octave>5</octave></pitch><duration>10080</duration><type>quarter</type><accidental>natural</accidental></note><note dynamics="88.89"><pitch><step>B</step><alter>0</alter><octave>4</octave></pitch><duration>10080</duration><type>quarter</type><accidental>natural</accidental></note><note dynamics="88.89"><pitch><step>C</step><alter>0</alter><octave>5</octave></pitch><duration>7560</duration><type>eighth</type><dot /><accidental>natural</accidental></note><note dynamics="88.89"><pitch><step>A</step><alter>0</alter><octave>4</octave></pitch><duration>7560</duration><type>eighth</type><dot /><accidental>natural</accidental></note></measure><!--========================= Measure 28 =========================--><measure number="28" implicit="no"><harmony><root><root-step>G</root-step></root><kind>major-seventh</kind></harmony><note><rest /><duration>2520</duration><type>16th</type></note><note dynamics="88.89"><pitch><step>B</step><alter>0</alter><octave>4</octave></pitch><duration>10080</duration><type>quarter</type><accidental>natural</accidental></note><note dynamics="88.89"><pitch><step>G</step><alter>0</alter><octave>4</octave></pitch><duration>10080</duration><type>quarter</type><accidental>natural</accidental></note><note dynamics="88.89"><pitch><step>F</step><alter>1</alter><octave>4</octave></pitch><duration>10080</duration><type>quarter</type><accidental>sharp</accidental></note><note dynamics="88.89"><pitch><step>A</step><alter>0</alter><octave>4</octave></pitch><duration>10080</duration><type>quarter</type><accidental>natural</accidental></note><note><rest /><duration>9450</duration><type>eighth</type><dot /><dot /><dot /></note><direction><direction-type><dynamics default-x="-36" default-y="-80"><mp /></dynamics></direction-type><offset sound="yes">-20160</offset><sound dynamics="57" /></direction><note dynamics="71.11"><pitch><step>B</step><alter>0</alter><octave>4</octave></pitch><duration>5040</duration><tie type="start" /><type>eighth</type><accidental>natural</accidental><notations><tied type="start" /></notations></note><note dynamics="71.11"><pitch><step>D</step><alter>0</alter><octave>5</octave></pitch><duration>5040</duration><tie type="start" /><type>eighth</type><accidental>natural</accidental><notations><tied type="start" /></notations></note><note dynamics="71.11"><pitch><step>B</step><alter>0</alter><octave>4</octave></pitch><duration>2520</duration><tie type="stop" /><tie type="start" /><type>16th</type><notations><tied type="stop" /><tied type="start" /></notations></note><note dynamics="71.11"><pitch><step>D</step><alter>0</alter><octave>5</octave></pitch><duration>2520</duration><tie type="stop" /><tie type="start" /><type>16th</type><notations><tied type="stop" /><tied type="start" /></notations></note><note dynamics="71.11"><pitch><step>B</step><alter>0</alter><octave>4</octave></pitch><duration>630</duration><tie type="stop" /><type>64th</type><notations><tied type="stop" /></notations></note><note dynamics="71.11"><pitch><step>D</step><alter>0</alter><octave>5</octave></pitch><duration>630</duration><tie type="stop" /><type>64th</type><notations><tied type="stop" /></notations></note></measure><!--========================= Measure 29 =========================--><measure number="29" implicit="no"><harmony><root><root-step>D</root-step></root><kind>dominant</kind></harmony><note><rest /><duration>1890</duration><type>32nd</type><dot /></note><direction><direction-type><dynamics default-x="-36" default-y="-80"><mf /></dynamics></direction-type><sound dynamics="69" /></direction><note dynamics="88.89"><pitch><step>E</step><alter>0</alter><octave>5</octave></pitch><duration>10080</duration><type>quarter</type><accidental>natural</accidental></note><note dynamics="88.89"><pitch><step>C</step><alter>0</alter><octave>5</octave></pitch><duration>10080</duration><type>quarter</type><accidental>natural</accidental></note><note dynamics="88.89"><pitch><step>F</step><alter>1</alter><octave>5</octave></pitch><duration>10080</duration><type>quarter</type><accidental>sharp</accidental></note><note dynamics="88.89"><pitch><step>D</step><alter>0</alter><octave>5</octave></pitch><duration>10080</duration><type>quarter</type><accidental>natural</accidental></note><note dynamics="88.89"><pitch><step>E</step><alter>0</alter><octave>5</octave></pitch><duration>10080</duration><type>quarter</type><accidental>natural</accidental></note><note dynamics="88.89"><pitch><step>G</step><alter>0</alter><octave>5</octave></pitch><duration>10080</duration><type>quarter</type><accidental>natural</accidental></note><note dynamics="88.89"><pitch><step>F</step><alter>1</alter><octave>5</octave></pitch><duration>8820</duration><type>eighth</type><dot /><dot /><accidental>sharp</accidental></note><note dynamics="88.89"><pitch><step>A</step><alter>0</alter><octave>5</octave></pitch><duration>8820</duration><type>eighth</type><dot /><dot /><accidental>natural</accidental></note></measure><!--========================= Measure 30 =========================--><measure number="30" implicit="no"><harmony><root><root-step>C</root-step></root><kind>major-seventh</kind></harmony><note><rest /><duration>1260</duration><type>32nd</type></note><note dynamics="88.89"><pitch><step>G</step><alter>0</alter><octave>5</octave></pitch><duration>10080</duration><type>quarter</type><accidental>natural</accidental></note><note dynamics="88.89"><pitch><step>B</step><alter>0</alter><octave>5</octave></pitch><duration>10080</duration><type>quarter</type><accidental>natural</accidental></note><note dynamics="88.89"><pitch><step>A</step><alter>0</alter><octave>5</octave></pitch><duration>10080</duration><type>quarter</type><accidental>natural</accidental></note><note dynamics="88.89"><pitch><step>C</step><alter>0</alter><octave>6</octave></pitch><duration>10080</duration><type>quarter</type><accidental>natural</accidental></note><direction><direction-type><dynamics default-x="-36" default-y="-80"><f /></dynamics></direction-type><offset sound="yes">-20160</offset><sound dynamics="88" /></direction><note dynamics="106.67"><pitch><step>B</step><alter>0</alter><octave>5</octave></pitch><duration>10080</duration><type>quarter</type><accidental>natural</accidental></note><note dynamics="106.67"><pitch><step>D</step><alter>0</alter><octave>6</octave></pitch><duration>10080</duration><type>quarter</type><accidental>natural</accidental></note><direction><direction-type><dynamics default-x="-36" default-y="-80"><mf /></dynamics></direction-type><offset sound="yes">-30870</offset><sound dynamics="69" /></direction><note dynamics="88.89"><pitch><step>A</step><alter>0</alter><octave>5</octave></pitch><duration>9450</duration><type>eighth</type><dot /><dot /><dot /><accidental>natural</accidental></note><note dynamics="88.89"><pitch><step>C</step><alter>0</alter><octave>6</octave></pitch><duration>9450</duration><type>eighth</type><dot /><dot /><dot /><accidental>natural</accidental></note></measure><!--========================= Measure 31 =========================--><measure number="31" implicit="no"><harmony><root><root-step>G</root-step></root><kind>major-seventh</kind></harmony><note><rest /><duration>630</duration><type>64th</type></note><note dynamics="88.89"><pitch><step>G</step><alter>0</alter><octave>5</octave></pitch><duration>10080</duration><type>quarter</type><accidental>natural</accidental></note><note dynamics="88.89"><pitch><step>B</step><alter>0</alter><octave>5</octave></pitch><duration>10080</duration><type>quarter</type><accidental>natural</accidental></note><note dynamics="88.89"><pitch><step>F</step><alter>1</alter><octave>5</octave></pitch><duration>10080</duration><type>quarter</type><accidental>sharp</accidental></note><note dynamics="88.89"><pitch><step>A</step><alter>0</alter><octave>5</octave></pitch><duration>10080</duration><type>quarter</type><accidental>natural</accidental></note><note><rest /><duration>9450</duration><type>eighth</type><dot /><dot /><dot /></note><note dynamics="88.89"><pitch><step>D</step><alter>0</alter><octave>5</octave></pitch><duration>10080</duration><type>quarter</type><accidental>natural</accidental></note></measure><!--========================= Measure 32 =========================--><measure number="32" implicit="no"><direction><direction-type><dynamics default-x="-36" default-y="-80"><mp /></dynamics></direction-type><sound dynamics="57" /></direction><harmony><root><root-step>D</root-step></root><kind>diminished-seventh</kind></harmony><note dynamics="71.11"><pitch><step>D</step><alter>0</alter><octave>5</octave></pitch><duration>10080</duration><type>quarter</type><accidental>natural</accidental></note><direction><direction-type><dynamics default-x="-36" default-y="-80"><mf /></dynamics></direction-type><sound dynamics="69" /></direction><note dynamics="88.89"><pitch><step>D</step><alter>0</alter><octave>5</octave></pitch><duration>10080</duration><type>quarter</type><accidental>natural</accidental></note><note dynamics="88.89"><pitch><step>B</step><alter>0</alter><octave>4</octave></pitch><duration>10080</duration><type>quarter</type><accidental>natural</accidental></note><note dynamics="88.89"><pitch><step>G</step><alter>1</alter><octave>5</octave></pitch><duration>10080</duration><type>quarter</type><accidental>sharp</accidental></note><note dynamics="88.89"><pitch><step>B</step><alter>0</alter><octave>5</octave></pitch><duration>10080</duration><type>quarter</type><accidental>natural</accidental></note><note dynamics="88.89"><pitch><step>B</step><alter>0</alter><octave>4</octave></pitch><duration>10080</duration><type>quarter</type><accidental>natural</accidental></note><note dynamics="88.89"><pitch><step>A</step><alter>0</alter><octave>5</octave></pitch><duration>630</duration><type>64th</type><accidental>natural</accidental></note></measure></part><!--=========================== Part 2 ===========================--><part id="Pdd18c9d093f6071e1a9a4f538a129e0d"><!--========================= Measure 1 ==========================--><measure number="1" implicit="no"><attributes><divisions>10080</divisions><key><fifths>1</fifths><mode>major</mode></key><time><beats>4</beats><beat-type>4</beat-type></time><clef><sign>F</sign><line>4</line></clef></attributes><note><rest /><duration>10080</duration><type>quarter</type></note><note><rest /><duration>2520</duration><type>16th</type></note><note><rest /><duration>630</duration><type>64th</type></note><direction><direction-type><dynamics default-x="-36" default-y="-80"><f /></dynamics></direction-type><sound dynamics="88" /></direction><note dynamics="106.67"><pitch><step>E</step><alter>0</alter><octave>2</octave></pitch><duration>10080</duration><type>quarter</type><accidental>natural</accidental></note></measure><!--========================= Measure 2 ==========================--><measure number="2" implicit="no"><note><rest /><duration>20160</duration><type>half</type></note><note dynamics="106.67"><pitch><step>C</step><alter>0</alter><octave>2</octave></pitch><duration>10080</duration><type>quarter</type><accidental>natural</accidental></note></measure><!--========================= Measure 3 ==========================--><measure number="3" implicit="no"><note><rest /><duration>10080</duration><type>quarter</type></note><note><rest /><duration>2520</duration><type>16th</type></note><note dynamics="106.67"><pitch><step>D</step><alter>0</alter><octave>2</octave></pitch><duration>10080</duration><type>quarter</type><accidental>natural</accidental></note></measure><!--========================= Measure 4 ==========================--><measure number="4" implicit="no"><note><rest /><duration>630</duration><type>64th</type></note><note dynamics="106.67"><pitch><step>G</step><alter>0</alter><octave>1</octave></pitch><duration>10080</duration><type>quarter</type><accidental>natural</accidental></note><note><rest /><duration>10080</duration><type>quarter</type></note><note><rest /><duration>1890</duration><type>32nd</type><dot /></note><note dynamics="106.67"><pitch><step>G</step><alter>0</alter><octave>1</octave></pitch><duration>10080</duration><type>quarter</type><accidental>natural</accidental></note></measure><!--========================= Measure 5 ==========================--><measure number="5" implicit="no"><note><rest /><duration>10080</duration><type>quarter</type></note><note><rest /><duration>2520</duration><type>16th</type></note><note><rest /><duration>630</duration><type>64th</type></note><note dynamics="106.67"><pitch><step>A</step><alter>0</alter><octave>1</octave></pitch><duration>10080</duration><type>quarter</type><accidental>natural</accidental></note></measure><!--========================= Measure 6 ==========================--><measure number="6" implicit="no"><note><rest /><duration>3780</duration><type>16th</type><dot /></note><note dynamics="106.67"><pitch><step>D</step><alter>0</alter><octave>2</octave></pitch><duration>10080</duration><type>quarter</type><accidental>natural</accidental></note></measure><!--========================= Measure 7 ==========================--><measure number="7" implicit="no"><note><rest /><duration>15120</duration><type>quarter</type><dot /></note><note dynamics="106.67"><pitch><step>G</step><alter>0</alter><octave>2</octave></pitch><duration>10080</duration><type>quarter</type><accidental>natural</accidental></note></measure><!--========================= Measure 8 ==========================--><measure number="8" implicit="no"><note><rest /><duration>5040</duration><type>eighth</type></note><note><rest /><duration>1260</duration><type>32nd</type></note><note dynamics="106.67"><pitch><step>G</step><alter>0</alter><octave>2</octave></pitch><duration>10080</duration><type>quarter</type><accidental>natural</accidental></note></measure><!--========================= Measure 9 ==========================--><measure number="9" implicit="no"><note><rest /><duration>9450</duration><type>eighth</type><dot /><dot /><dot /></note><note dynamics="106.67"><pitch><step>D</step><alter>0</alter><octave>3</octave></pitch><duration>10080</duration><type>quarter</type><accidental>natural</accidental></note></measure><!--========================= Measure 10 =========================--><measure number="10" implicit="no"><note><rest /><duration>10080</duration><type>quarter</type></note><note><rest /><duration>630</duration><type>64th</type></note><note dynamics="106.67"><pitch><step>C</step><alter>0</alter><octave>3</octave></pitch><duration>10080</duration><type>quarter</type><accidental>natural</accidental></note></measure><!--========================= Measure 11 =========================--><measure number="11" implicit="no"><note><rest /><duration>7560</duration><type>eighth</type><dot /></note><note dynamics="106.67"><pitch><step>D</step><alter>0</alter><octave>3</octave></pitch><duration>10080</duration><type>quarter</type><accidental>natural</accidental></note></measure><!--========================= Measure 12 =========================--><measure number="12" implicit="no"><note><rest /><duration>10080</duration><type>quarter</type></note><note><rest /><duration>2520</duration><type>16th</type></note><note><rest /><duration>630</duration><type>64th</type></note><note dynamics="106.67"><pitch><step>G</step><alter>0</alter><octave>1</octave></pitch><duration>10080</duration><type>quarter</type><accidental>natural</accidental></note></measure><!--========================= Measure 13 =========================--><measure number="13" implicit="no"><note><rest /><duration>10080</duration><type>quarter</type></note><note><rest /><duration>2520</duration><type>16th</type></note><note><rest /><duration>630</duration><type>64th</type></note><note dynamics="106.67"><pitch><step>A</step><alter>0</alter><octave>1</octave></pitch><duration>10080</duration><type>quarter</type><accidental>natural</accidental></note></measure><!--========================= Measure 14 =========================--><measure number="14" implicit="no"><note><rest /><duration>9450</duration><type>eighth</type><dot /><dot /><dot /></note><note dynamics="106.67"><pitch><step>B</step><alter>0</alter><octave>1</octave></pitch><duration>10080</duration><type>quarter</type><accidental>natural</accidental></note></measure><!--========================= Measure 15 =========================--><measure number="15" implicit="no"><note><rest /><duration>20160</duration><type>half</type></note><note><rest /><duration>10080</duration><type>quarter</type></note><note><rest /><duration>5040</duration><type>eighth</type></note><note><rest /><duration>630</duration><type>64th</type></note><note dynamics="106.67"><pitch><step>G</step><alter>0</alter><octave>1</octave></pitch><duration>4410</duration><type>16th</type><dot /><dot /><accidental>natural</accidental></note></measure><!--========================= Measure 16 =========================--><measure number="16" implicit="no"><note><rest /><duration>1890</duration><type>32nd</type><dot /></note><note dynamics="106.67"><pitch><step>E</step><alter>0</alter><octave>1</octave></pitch><duration>10080</duration><type>quarter</type><accidental>natural</accidental></note></measure><!--========================= Measure 17 =========================--><measure number="17" implicit="no"><note><rest /><duration>17640</duration><type>quarter</type><dot /><dot /></note><note dynamics="106.67"><pitch><step>A</step><alter>0</alter><octave>1</octave></pitch><duration>10080</duration><type>quarter</type><accidental>natural</accidental></note></measure><!--========================= Measure 18 =========================--><measure number="18" implicit="no"><note><rest /><duration>20160</duration><type>half</type></note><note><rest /><duration>9450</duration><type>eighth</type><dot /><dot /><dot /></note><note dynamics="106.67"><pitch><step>G</step><alter>0</alter><octave>2</octave></pitch><duration>10080</duration><type>quarter</type><accidental>natural</accidental></note></measure><!--========================= Measure 19 =========================--><measure number="19" implicit="no"><note><rest /><duration>30240</duration><type>half</type><dot /></note><note dynamics="106.67"><pitch><step>D</step><alter>0</alter><octave>3</octave></pitch><duration>10080</duration><type>quarter</type><accidental>natural</accidental></note></measure><!--========================= Measure 20 =========================--><measure number="20" implicit="no"><note><rest /><duration>10080</duration><type>quarter</type></note><note><rest /><duration>5040</duration><type>eighth</type></note><note><rest /><duration>630</duration><type>64th</type></note><note dynamics="106.67"><pitch><step>C</step><alter>0</alter><octave>3</octave></pitch><duration>10080</duration><type>quarter</type><accidental>natural</accidental></note></measure><!--========================= Measure 21 =========================--><measure number="21" implicit="no"><note><rest /><duration>20160</duration><type>half</type></note><note><rest /><duration>10080</duration><type>quarter</type></note><note><rest /><duration>1890</duration><type>32nd</type><dot /></note><note dynamics="106.67"><pitch><step>G</step><alter>0</alter><octave>1</octave></pitch><duration>5040</duration><tie type="start" /><type>eighth</type><accidental>natural</accidental><stem>up</stem><beam number="1">begin</beam><notations><tied type="start" /></notations></note><note dynamics="106.67"><pitch><step>G</step><alter>0</alter><octave>1</octave></pitch><duration>2520</duration><tie type="stop" /><tie type="start" /><type>16th</type><stem>up</stem><beam number="1">continue</beam><beam number="2">begin</beam><notations><tied type="stop" /><tied type="start" /></notations></note><note dynamics="106.67"><pitch><step>G</step><alter>0</alter><octave>1</octave></pitch><duration>630</duration><tie type="stop" /><type>64th</type><stem>up</stem><beam number="1">end</beam><beam number="2">end</beam><beam number="3">backward hook</beam><beam number="4">backward hook</beam><notations><tied type="stop" /></notations></note></measure><!--========================= Measure 22 =========================--><measure number="22" implicit="no"><note><rest /><duration>10080</duration><type>quarter</type></note><note><rest /><duration>5040</duration><type>eighth</type></note><note><rest /><duration>2520</duration><type>16th</type></note><note><rest /><duration>630</duration><type>64th</type></note><note dynamics="106.67"><pitch><step>C</step><alter>0</alter><octave>3</octave></pitch><duration>10080</duration><type>quarter</type><accidental>natural</accidental></note></measure><!--========================= Measure 23 =========================--><measure number="23" implicit="no"><note><rest /><duration>20160</duration><type>half</type></note><note><rest /><duration>3780</duration><type>16th</type><dot /></note><note dynamics="106.67"><pitch><step>D</step><alter>0</alter><octave>3</octave></pitch><duration>10080</duration><type>quarter</type><accidental>natural</accidental></note></measure><!--========================= Measure 24 =========================--><measure number="24" implicit="no"><note><rest /><duration>20160</duration><type>half</type></note><note><rest /><duration>10080</duration><type>quarter</type></note><note><rest /><duration>4410</duration><type>16th</type><dot /><dot /></note><note dynamics="106.67"><pitch><step>B</step><alter>0</alter><octave>1</octave></pitch><duration>5040</duration><tie type="start" /><type>eighth</type><accidental>natural</accidental><stem>up</stem><beam number="1">begin</beam><notations><tied type="start" /></notations></note><note dynamics="106.67"><pitch><step>B</step><alter>0</alter><octave>1</octave></pitch><duration>630</duration><tie type="stop" /><type>64th</type><stem>up</stem><beam number="1">end</beam><beam number="2">backward hook</beam><beam number="3">backward hook</beam><beam number="4">backward hook</beam><notations><tied type="stop" /></notations></note></measure><!--========================= Measure 25 =========================--><measure number="25" implicit="no"><note dynamics="106.67"><pitch><step>C</step><alter>0</alter><octave>2</octave></pitch><duration>10080</duration><type>quarter</type><accidental>natural</accidental></note></measure><!--========================= Measure 26 =========================--><measure number="26" implicit="no"><note><rest /><duration>10080</duration><type>quarter</type></note><note><rest /><duration>5040</duration><type>eighth</type></note><note><rest /><duration>1260</duration><type>32nd</type></note><note dynamics="106.67"><pitch><step>G</step><alter>0</alter><octave>1</octave></pitch><duration>10080</duration><type>quarter</type><accidental>natural</accidental></note></measure><!--========================= Measure 27 =========================--><measure number="27" implicit="no"><note><rest /><duration>17640</duration><type>quarter</type><dot /><dot /></note><note dynamics="106.67"><pitch><step>G</step><alter>0</alter><octave>1</octave></pitch><duration>10080</duration><type>quarter</type><accidental>natural</accidental></note></measure><!--========================= Measure 28 =========================--><measure number="28" implicit="no"><note><rest /><duration>20160</duration><type>half</type></note><note><rest /><duration>3780</duration><type>16th</type><dot /></note><note dynamics="106.67"><pitch><step>C</step><alter>0</alter><octave>3</octave></pitch><duration>10080</duration><type>quarter</type><accidental>natural</accidental></note></measure><!--========================= Measure 29 =========================--><measure number="29" implicit="no"><note><rest /><duration>20160</duration><type>half</type></note><note><rest /><duration>10080</duration><type>quarter</type></note><note><rest /><duration>2520</duration><type>16th</type></note><note dynamics="106.67"><pitch><step>D</step><alter>0</alter><octave>3</octave></pitch><duration>7560</duration><type>eighth</type><dot /><accidental>natural</accidental></note></measure><!--========================= Measure 30 =========================--><measure number="30" implicit="no"><note><rest /><duration>20160</duration><type>half</type></note><note><rest /><duration>10080</duration><type>quarter</type></note><note><rest /><duration>5040</duration><type>eighth</type></note><note><rest /><duration>1890</duration><type>32nd</type><dot /></note><note dynamics="106.67"><pitch><step>E</step><alter>0</alter><octave>3</octave></pitch><duration>2520</duration><tie type="start" /><type>16th</type><accidental>natural</accidental><stem>down</stem><beam number="1">begin</beam><beam number="2">begin</beam><notations><tied type="start" /></notations></note><note dynamics="106.67"><pitch><step>E</step><alter>0</alter><octave>3</octave></pitch><duration>630</duration><tie type="stop" /><type>64th</type><stem>down</stem><beam number="1">end</beam><beam number="2">end</beam><beam number="3">backward hook</beam><beam number="4">backward hook</beam><notations><tied type="stop" /></notations></note></measure><!--========================= Measure 31 =========================--><measure number="31" implicit="no"><note><rest /><duration>20160</duration><type>half</type></note><note><rest /><duration>10080</duration><type>quarter</type></note><note><rest /><duration>5040</duration><type>eighth</type></note><note><rest /><duration>2520</duration><type>16th</type></note><note><rest /><duration>630</duration><type>64th</type></note><note dynamics="106.67"><pitch><step>D</step><alter>0</alter><octave>3</octave></pitch><duration>1890</duration><type>32nd</type><dot /><accidental>natural</accidental></note></measure><!--========================= Measure 32 =========================--><measure number="32" implicit="no"><note><rest /><duration>20160</duration><type>half</type></note><note><rest /><duration>1260</duration><type>32nd</type></note><note dynamics="106.67"><pitch><step>G</step><alter>0</alter><octave>1</octave></pitch><duration>10080</duration><type>quarter</type><accidental>natural</accidental></note></measure></part></score-partwise>